<svg width="82" height="88" viewBox="0 0 82 88" fill="none" xmlns="http://www.w3.org/2000/svg">
<path d="M27.7311 36.2988C27.309 33.3115 26.9009 30.4105 26.4905 27.5096C26.157 25.1496 25.8142 22.792 25.4877 20.4297C25.4084 19.863 25.2825 19.4666 24.5992 19.2637C23.221 18.8229 22.3629 17.4657 22.3675 16.0292C22.366 15.3257 22.5809 14.6386 22.983 14.0613C23.3852 13.484 23.9551 13.0443 24.6155 12.8018C25.0166 12.6502 25.2755 12.5266 25.4084 12.0369C26.4905 7.98624 29.6479 5.58431 33.8408 5.57265H34.9369C34.9369 5.08293 34.9509 4.68183 34.9369 4.28306C34.8949 3.31529 34.3749 2.79993 33.3861 2.7836C32.1362 2.76495 30.8839 2.7836 29.634 2.7836C28.5962 2.7836 27.9736 2.25191 27.9619 1.4054C27.9503 0.558897 28.5752 0.0062186 29.5943 0.0062186C30.8746 0.0062186 32.1595 -0.00777326 33.4351 0.0062186C35.9303 0.0318703 37.6979 1.81117 37.7306 4.31804C37.7306 4.69582 37.7306 5.0736 37.7306 5.51202C38.6634 5.58431 39.5962 5.57032 40.4916 5.74521C43.9266 6.37951 46.149 8.41766 47.1774 11.7477C47.5412 12.9137 48.1592 13.2262 49.2762 12.6968C58.7207 8.21011 69.7486 14.194 71.1292 24.5339C71.175 24.7102 71.2581 24.8747 71.3727 25.0163C71.4873 25.1578 71.6309 25.2733 71.7938 25.3548C73.193 25.9821 74.0721 27.2367 74.0558 28.6895C74.0395 30.1424 73.123 31.3713 71.7052 31.9543C71.4364 32.0672 71.2159 32.2711 71.0825 32.5303C70.8003 33.1623 70.6488 33.8572 70.3503 34.4822C70.0211 35.0936 69.6591 35.6868 69.2659 36.2591C69.4774 36.2937 69.6908 36.3163 69.9049 36.3268C72.1459 36.3268 74.3869 36.3268 76.628 36.3268C79.2468 36.3268 81.0377 38.0944 81.0377 40.6945C81.0471 52.6809 81.0471 64.6681 81.0377 76.656C81.0377 79.2211 79.2584 80.9911 76.7072 81.0168C75.8071 81.0168 74.907 81.0168 73.9555 81.0168C73.4705 83.3277 72.3348 85.1957 70.4039 86.5296C68.9596 87.5345 67.2305 88.0487 65.4718 87.9964C61.5937 87.9287 58.8373 85.5758 57.3565 81.0494H22.2999C20.7561 85.7763 17.8365 88.1246 13.6716 87.9894C10.3905 87.8844 6.70363 85.6807 5.71021 81.0144C5.2135 81.0144 4.6958 81.0144 4.18043 81.0144C3.62985 81.0142 3.08478 80.9047 2.57681 80.6923C2.06883 80.4799 1.60804 80.1688 1.22111 79.7771C0.834176 79.3854 0.528798 78.9209 0.322657 78.4103C0.116516 77.8998 0.0137076 77.3534 0.0201852 76.8029C-0.000802633 72.09 -0.0147945 67.37 0.0271811 62.6618C0.0551648 59.4693 2.35916 56.7455 5.45835 56.004C5.90819 55.8725 6.29407 55.5804 6.54272 55.1831C9.3994 50.2533 12.2444 45.3165 15.0335 40.3494C16.5772 37.5977 18.8392 36.2218 22.0037 36.2894C23.8903 36.3314 25.7769 36.2988 27.7311 36.2988ZM57.3658 78.1624C58.6181 73.8902 61.3932 71.4253 65.1336 71.2294C66.8916 71.1091 68.642 71.5545 70.1287 72.5004C72.2275 73.8319 73.4471 75.7652 73.9532 78.1951H76.2012C77.8569 78.1951 78.2464 77.8033 78.2464 76.1359V41.2286C78.2464 39.4493 77.8872 39.0925 76.1033 39.0925H22.0667C21.7472 39.0925 21.4254 39.0925 21.1059 39.1065C20.3017 39.1571 19.5315 39.4496 18.8965 39.9457C18.2614 40.4417 17.7911 41.1181 17.5473 41.8862C18.6317 41.8862 19.7044 41.8862 20.7771 41.8862C23.3843 41.9048 25.1449 43.6655 25.1566 46.2866C25.1682 48.7888 25.1566 51.2911 25.1566 53.7909C25.1566 57.0557 23.5452 58.6461 20.2594 58.6461C15.8963 58.6461 11.5308 58.6461 7.16536 58.6461C5.18085 58.6461 3.53914 59.8121 3.201 61.4445C3.58578 61.4445 3.95889 61.4328 4.33201 61.4445C5.38528 61.527 6.3687 62.0037 7.08599 62.7794C7.80328 63.5551 8.20168 64.5727 8.20168 65.6292C8.20168 66.6857 7.80328 67.7034 7.08599 68.479C6.3687 69.2547 5.38528 69.7314 4.33201 69.8139C3.84696 69.8303 3.36191 69.8139 2.82555 69.8139C2.82555 72.2439 2.7999 74.5665 2.84188 76.8892C2.84188 77.6517 3.36657 78.1088 4.13146 78.1811C4.64683 78.2277 5.16919 78.1811 5.66823 78.1811C7.11639 73.6664 9.89611 71.2878 13.7812 71.2201C15.5398 71.169 17.2685 71.6831 18.7133 72.6869C20.6442 74.0208 21.7822 75.8864 22.2533 78.1624H57.3658ZM68.2841 25.082C68.0346 19.9516 63.0722 13.7206 55.3883 13.9538C49.3042 14.1357 43.1897 19.8374 43.5209 25.082H68.2841ZM42.3129 36.2755C41.7649 34.9532 41.2425 33.6496 40.6805 32.3671C40.554 32.161 40.3605 32.0046 40.1325 31.924C38.6424 31.3317 37.7376 30.098 37.7352 28.6126C37.7329 27.1271 38.6167 25.9355 40.0299 25.3082C40.3287 25.1423 40.553 24.8688 40.6572 24.5433C41.105 23.1091 41.4897 21.6563 41.9025 20.2105C41.9608 20.0029 42.0377 19.8024 42.1077 19.5948H28.1741C28.9763 25.1916 29.7692 30.7347 30.5621 36.2708L42.3129 36.2755ZM9.41106 55.8524C13.3381 55.8524 17.0856 55.8524 20.8377 55.8524C21.8452 55.8524 22.3629 55.2951 22.3675 54.2503C22.38 51.6354 22.38 49.0213 22.3675 46.4079C22.3675 45.2046 21.8685 44.6962 20.6908 44.6892C19.2683 44.6776 17.8435 44.7079 16.421 44.6729C16.225 44.651 16.0271 44.6918 15.8557 44.7894C15.6843 44.8871 15.5483 45.0365 15.4672 45.2163C14.3012 47.315 13.0863 49.4138 11.8923 51.4939C11.0901 52.9118 10.2902 54.311 9.41106 55.8524ZM13.9911 74.0115C12.8841 74.0069 11.8007 74.3306 10.8778 74.9418C9.95486 75.5529 9.23389 76.424 8.80603 77.4449C8.37817 78.4658 8.26266 79.5907 8.47408 80.6772C8.68551 81.7637 9.21439 82.7632 9.99384 83.5492C10.7733 84.3351 11.7683 84.8723 12.853 85.0928C13.9378 85.3133 15.0636 85.2071 16.088 84.7878C17.1124 84.3685 17.9895 83.6548 18.6083 82.737C19.2271 81.8192 19.5599 80.7385 19.5645 79.6316C19.5676 78.8966 19.4258 78.1682 19.1474 77.488C18.869 76.8078 18.4593 76.1891 17.9417 75.6672C17.4242 75.1453 16.8089 74.7305 16.1311 74.4464C15.4532 74.1623 14.726 74.0146 13.9911 74.0115ZM71.2551 79.5639C71.2509 78.4572 70.9187 77.3766 70.3005 76.4586C69.6823 75.5406 68.8058 74.8266 67.7818 74.4067C66.7578 73.9868 65.6324 73.8799 64.5476 74.0995C63.4629 74.3192 62.4677 74.8555 61.6877 75.6407C60.9077 76.4258 60.3781 77.4246 60.1657 78.5108C59.9533 79.5969 60.0677 80.7217 60.4944 81.7429C60.9211 82.764 61.641 83.6357 62.563 84.2478C63.4851 84.8599 64.5679 85.1849 65.6747 85.1817C66.4104 85.1801 67.1387 85.0336 67.8177 84.7503C68.4968 84.467 69.1133 84.0527 69.6321 83.5309C70.1508 83.0091 70.5616 82.3902 70.8409 81.7095C71.1202 81.0288 71.2625 80.2997 71.2597 79.5639H71.2551ZM68.1932 32.1082C64.3548 32.1082 60.5746 32.2248 56.8062 32.0639C54.6234 31.9706 52.8231 32.3251 51.5545 34.2256C51.5022 34.2955 51.4402 34.3575 51.3703 34.4099C50.6287 35.0722 49.9501 35.0745 49.2132 34.3889C48.7645 34.0184 48.3543 33.6035 47.9889 33.1506C46.7856 31.4599 45.116 32.2948 43.5582 32.1175C44.2298 34.5498 46.2633 36.2498 48.6302 36.2755C53.4839 36.3268 58.3375 36.3268 63.1911 36.2755C65.5744 36.2405 67.6545 34.4565 68.1979 32.1082H68.1932ZM44.407 12.5196C44.0875 10.3742 41.8955 8.47596 39.5099 8.38734C37.3901 8.31039 35.2634 8.30806 33.1436 8.38734C30.7603 8.48062 28.5169 10.4441 28.2814 12.5173L44.407 12.5196ZM45.1882 15.367C44.9667 15.367 44.8011 15.3436 44.6356 15.3436C38.5071 15.3436 32.3779 15.3436 26.2479 15.3436C26.073 15.3436 25.8445 15.2877 25.7372 15.3739C25.504 15.5582 25.2125 15.8217 25.2149 16.0502C25.2172 16.2788 25.5157 16.5679 25.7559 16.7008C25.9588 16.8104 26.2666 16.7382 26.5278 16.7382C31.8447 16.7382 37.1592 16.7008 42.4762 16.7685C43.6655 16.7871 44.5633 16.5469 45.1882 15.367ZM56.5916 29.3098H70.3503C70.4925 29.3098 70.6907 29.3402 70.77 29.2609C70.9613 29.072 71.1968 28.8388 71.2224 28.6033C71.2095 28.4799 71.1683 28.3612 71.102 28.2564C71.0356 28.1517 70.946 28.0637 70.84 27.9993C70.6371 27.8827 70.3363 27.9176 70.0751 27.9176C66.4419 27.9176 62.8063 27.9759 59.1754 27.8803C57.9791 27.85 57.2912 28.3421 56.5916 29.3145V29.3098ZM47.0305 27.9316C48.1522 29.058 49.2879 30.1937 50.2416 31.1474L53.4458 27.9316H47.0305ZM2.84887 67.0296C3.75601 66.9503 4.77275 67.3514 5.3161 66.3789C5.42552 66.1429 5.4822 65.8859 5.4822 65.6257C5.4822 65.3655 5.42552 65.1085 5.3161 64.8725C4.76576 63.9187 3.76301 64.2778 2.85354 64.2568L2.84887 67.0296ZM43.9733 29.3098C43.3087 28.1322 42.4039 27.6775 41.2285 27.9456C40.965 28.0063 40.5546 28.412 40.5896 28.5683C40.6479 28.8481 40.986 29.2515 41.2402 29.2679C42.1194 29.3588 43.0125 29.3098 43.9733 29.3098Z" fill="#F58634"/>
<path d="M51.7015 41.8838H73.4425C75.0469 41.8838 75.4527 42.2872 75.4527 43.8893V66.4139C75.4527 68.0159 75.0446 68.4217 73.4425 68.4217H29.9628C28.3584 68.4217 27.9526 68.0183 27.9526 66.4139V43.894C27.9526 42.2872 28.3561 41.8861 29.9605 41.8861L51.7015 41.8838ZM36.1192 60.0032C36.3524 59.1288 36.3524 58.1703 36.8188 57.7226C37.2852 57.2748 38.2786 57.2562 39.1298 57.0346C39.2114 56.1018 38.78 54.5837 40.431 54.5114C42.2966 54.4298 41.8162 56.1018 41.9445 57.0137C42.8376 57.2725 43.8101 57.2748 44.2765 57.7669C44.7429 58.2589 44.7079 59.2314 44.8944 59.9963H47.2964C47.5296 59.1591 47.5296 58.1843 47.996 57.7086C48.4624 57.2329 49.4581 57.2585 50.2883 57.044C50.3699 56.0809 49.9478 54.5674 51.6129 54.5091C53.4785 54.4461 52.9864 56.1158 53.117 57.2025C55.5912 57.3728 55.5912 57.3728 55.9737 60.0009H72.6123V51.256C71.2621 51.5885 69.8364 51.4065 68.613 50.7453C68.4707 50.666 68.1816 50.8013 67.9857 50.8922C67.2597 51.2348 66.4673 51.4136 65.6646 51.416C64.8619 51.4184 64.0684 51.2444 63.3404 50.9062C63.0399 50.792 62.708 50.792 62.4076 50.9062C61.6662 51.2498 60.8577 51.4243 60.0406 51.417C59.2235 51.4098 58.4182 51.2209 57.683 50.8642C57.4311 50.7617 57.1491 50.7617 56.8971 50.8642C56.1506 51.2319 55.3296 51.4231 54.4975 51.4231C53.6654 51.4231 52.8444 51.2319 52.0979 50.8642C51.845 50.7628 51.5627 50.7628 51.3097 50.8642C50.5629 51.2307 49.742 51.4212 48.9101 51.4212C48.0782 51.4212 47.2574 51.2307 46.5105 50.8642C46.2584 50.7627 45.9767 50.7627 45.7246 50.8642C44.9783 51.2324 44.1572 51.4239 43.325 51.4239C42.4928 51.4239 41.6718 51.2324 40.9254 50.8642C40.6739 50.764 40.3934 50.764 40.1419 50.8642C39.3833 51.241 38.5469 51.4344 37.6999 51.4287C36.8529 51.423 36.0192 51.2185 35.2657 50.8316C35.1813 50.7876 35.0888 50.761 34.9939 50.7534C34.8989 50.7457 34.8034 50.7573 34.713 50.7873C33.4818 51.4519 32.1782 51.5615 30.8046 51.284V60.0242L36.1192 60.0032ZM55.941 65.5697H72.5937V62.8809H55.934L55.941 65.5697ZM36.3034 62.8972H30.8233V65.5837H36.3034V62.8972ZM50.3606 60.0849V65.572H53.0424V60.0849H50.3606ZM39.1974 60.0849V65.5603H41.8839V60.0825L39.1974 60.0849ZM36.3431 44.7218V47.0048C36.3431 48.446 37.4088 49.0803 38.731 48.404C38.8265 48.3553 38.9103 48.2865 38.9767 48.2024C39.0431 48.1182 39.0906 48.0208 39.1158 47.9166C39.1508 46.8532 39.1321 45.7898 39.1321 44.7265L36.3431 44.7218ZM47.5179 44.7218C47.5179 45.7339 47.5552 46.6643 47.5063 47.5878C47.4736 48.1825 47.7395 48.4926 48.2618 48.5206C48.8039 48.5491 49.3475 48.5107 49.8802 48.4063C49.9887 48.3567 50.083 48.2809 50.1547 48.1856C50.2263 48.0903 50.2731 47.9786 50.2906 47.8606C50.3326 46.8276 50.3116 45.7898 50.3116 44.7195L47.5179 44.7218ZM61.4888 44.7521H58.6904V46.9885C58.6904 48.446 59.6022 49.0476 60.9804 48.4483C61.1068 48.3779 61.2156 48.2799 61.2988 48.1616C61.3819 48.0433 61.4373 47.9077 61.4608 47.765C61.5121 46.7739 61.4818 45.7875 61.4818 44.7498L61.4888 44.7521ZM72.666 44.7521H69.8676C69.8676 45.7409 69.9026 46.669 69.8536 47.5925C69.8209 48.1895 70.0868 48.474 70.6138 48.5253C71.0425 48.5696 71.4747 48.5696 71.9034 48.5253C72.4328 48.4693 72.7056 48.1941 72.673 47.5925C72.6217 46.6643 72.659 45.7339 72.659 44.7498L72.666 44.7521ZM64.2825 44.7311C64.2825 45.6919 64.3291 46.6177 64.2685 47.5295C64.2195 48.2291 64.5553 48.5066 65.1477 48.5392C65.634 48.5662 66.1217 48.5286 66.5982 48.4273C66.7106 48.3855 66.8109 48.3166 66.8902 48.2267C66.9696 48.1368 67.0254 48.0287 67.0529 47.9119C67.0972 46.8509 67.0739 45.7875 67.0739 44.7265L64.2825 44.7311ZM41.9305 44.7311C41.9305 45.6919 41.9771 46.6177 41.9142 47.5295C41.8675 48.2291 42.201 48.5066 42.7933 48.5392C43.2804 48.5663 43.769 48.5287 44.2462 48.4273C44.3583 48.3852 44.4585 48.3162 44.5377 48.2263C44.617 48.1364 44.6731 48.0285 44.7009 47.9119C44.7429 46.8509 44.7219 45.7875 44.7219 44.7265L41.9305 44.7311ZM53.1077 44.7311C53.1077 45.7689 53.1357 46.725 53.096 47.6764C53.0727 48.2011 53.3292 48.4763 53.763 48.5066C54.3329 48.5408 54.9048 48.5095 55.4676 48.4133C55.5761 48.3641 55.6706 48.2886 55.7427 48.1938C55.8147 48.0989 55.862 47.9877 55.8804 47.87C55.92 46.8369 55.899 45.7992 55.899 44.7311H53.1077ZM30.7533 44.7311C30.7533 45.6639 30.8233 46.5104 30.7347 47.3383C30.6367 48.2711 31.1311 48.5346 31.882 48.5579C32.3109 48.5662 32.7386 48.5096 33.1506 48.39C33.2461 48.3478 33.3301 48.2835 33.3958 48.2024C33.4615 48.1213 33.5069 48.0257 33.5284 47.9236C33.561 46.8672 33.5447 45.8085 33.5447 44.7428L30.7533 44.7311ZM47.4573 65.607V62.9042H44.7732V65.5907L47.4573 65.607Z" fill="#F58634"/>
<path d="M19.6485 64.2243C19.1261 64.2243 18.5991 64.2593 18.0791 64.2243C17.7238 64.205 17.39 64.0481 17.1484 63.7869C16.9068 63.5258 16.7764 63.1808 16.7848 62.8251C16.7791 62.4704 16.9136 62.1277 17.1589 61.8715C17.4043 61.6152 17.7407 61.466 18.0954 61.4562C19.0818 61.4119 20.0752 61.4096 21.0617 61.4562C21.4161 61.4702 21.7508 61.6231 21.9934 61.8819C22.236 62.1406 22.3671 62.4845 22.3582 62.8391C22.3574 63.1928 22.2207 63.5326 21.9763 63.7883C21.7319 64.0439 21.3986 64.1959 21.0453 64.2126C20.5813 64.2569 20.1149 64.2243 19.6485 64.2243Z" fill="#F58634"/>
<path d="M62.8716 19.5505C62.8716 19.8282 62.7889 20.0996 62.6341 20.3302C62.4793 20.5608 62.2594 20.7401 62.0024 20.8453C61.7453 20.9504 61.4628 20.9768 61.1908 20.9209C60.9187 20.8649 60.6695 20.7294 60.4748 20.5313C60.2801 20.3333 60.1487 20.0818 60.0973 19.8089C60.046 19.536 60.0771 19.2539 60.1866 18.9987C60.2961 18.7435 60.479 18.5266 60.7122 18.3757C60.9453 18.2248 61.2181 18.1467 61.4957 18.1513C61.8628 18.1574 62.2127 18.3075 62.4701 18.5693C62.7275 18.831 62.8717 19.1834 62.8716 19.5505Z" fill="#F58634"/>
<path d="M55.9341 18.1466C56.2116 18.1528 56.481 18.2414 56.708 18.4011C56.935 18.5608 57.1094 18.7845 57.2089 19.0436C57.3085 19.3027 57.3287 19.5855 57.2671 19.8562C57.2054 20.1268 57.0647 20.373 56.8627 20.5634C56.6608 20.7539 56.4068 20.8799 56.133 20.9256C55.8592 20.9712 55.578 20.9344 55.3252 20.8198C55.0724 20.7052 54.8593 20.518 54.7132 20.282C54.5671 20.046 54.4945 19.7719 54.5046 19.4945C54.518 19.127 54.6755 18.7797 54.943 18.5274C55.2105 18.2752 55.5665 18.1384 55.9341 18.1466Z" fill="#F58634"/>
<path d="M51.6944 19.5505C51.6943 19.8282 51.6116 20.0996 51.4568 20.3302C51.302 20.5608 51.0821 20.7401 50.8251 20.8453C50.5681 20.9504 50.2856 20.9768 50.0135 20.9209C49.7415 20.8649 49.4922 20.7294 49.2975 20.5313C49.1028 20.3333 48.9714 20.0818 48.9201 19.8089C48.8688 19.536 48.8998 19.2539 49.0093 18.9987C49.1188 18.7435 49.3018 18.5266 49.5349 18.3757C49.768 18.2248 50.0408 18.1467 50.3185 18.1513C50.6855 18.1574 51.0355 18.3075 51.2928 18.5693C51.5502 18.831 51.6944 19.1834 51.6944 19.5505Z" fill="#F58634"/>
<path d="M13.9911 80.9865C13.7137 80.9893 13.4419 80.9096 13.2099 80.7576C12.978 80.6055 12.7965 80.388 12.6884 80.1326C12.5804 79.8771 12.5507 79.5954 12.6031 79.3231C12.6555 79.0507 12.7876 78.8001 12.9827 78.603C13.1778 78.4059 13.4271 78.2713 13.6989 78.2162C13.9707 78.161 14.2527 78.1879 14.5092 78.2934C14.7657 78.3989 14.9851 78.5782 15.1394 78.8086C15.2938 79.039 15.3762 79.31 15.3763 79.5874C15.3763 79.956 15.2308 80.3098 14.9714 80.5718C14.712 80.8338 14.3597 80.9828 13.9911 80.9865Z" fill="#F58634"/>
<path d="M65.7119 78.2066C65.9894 78.2128 66.2588 78.3014 66.4858 78.4612C66.7128 78.6209 66.8872 78.8445 66.9868 79.1036C67.0863 79.3627 67.1066 79.6456 67.0449 79.9162C66.9833 80.1869 66.8425 80.4331 66.6406 80.6235C66.4386 80.8139 66.1846 80.94 65.9108 80.9856C65.637 81.0313 65.3558 80.9945 65.103 80.8799C64.8502 80.7653 64.6372 80.578 64.4911 80.342C64.3449 80.106 64.2723 79.8319 64.2824 79.5545C64.2958 79.1871 64.4533 78.8397 64.7208 78.5875C64.9883 78.3352 65.3443 78.1984 65.7119 78.2066Z" fill="#F58634"/>
</svg>
