<svg width="89" height="88" viewBox="0 0 89 88" fill="none" xmlns="http://www.w3.org/2000/svg">
<path d="M0 56.5945V53.9886C0.0469584 53.8874 0.0852922 53.7823 0.114594 53.6746C0.710481 50.4775 2.49814 48.2268 5.46153 46.8838C5.57931 46.8009 5.67692 46.6925 5.74714 46.5668C5.81736 46.441 5.85839 46.301 5.86719 46.1573C5.91074 45.0113 5.86719 43.8425 5.89928 42.6851C5.91532 42.1786 5.71822 41.9219 5.30798 41.656C2.32854 39.7286 1.29262 36.3595 2.59211 33.0776C2.71816 32.7567 2.59211 32.3304 2.55544 31.9568C2.42251 30.8521 1.99622 29.7062 2.1704 28.6588C2.73541 25.4045 3.9087 22.2858 5.62884 19.4661C9.74046 12.5905 15.7131 7.82799 22.905 4.56895C31.4926 0.672762 40.5364 -0.649649 49.9216 0.290019C57.7323 1.07384 65.0296 3.37259 71.6462 7.64006C78.3316 11.9534 83.399 17.628 85.9315 25.2875C86.603 27.3227 87.3891 29.4129 86.5503 31.636C86.5254 31.8329 86.578 32.0317 86.697 32.1906C88.8467 35.5253 87.6871 40.2947 83.564 42.1969C83.4322 42.2785 83.3204 42.3886 83.2367 42.5191C83.153 42.6496 83.0996 42.7971 83.0804 42.9509C83.0197 44.0196 83.0197 45.0909 83.0804 46.1596C83.1073 46.3258 83.1706 46.4841 83.2656 46.6232C83.3607 46.7622 83.4853 46.8786 83.6304 46.964C89.0163 49.5515 90.6229 55.8909 87.0683 60.7153C86.768 61.1232 86.7634 61.4028 86.9812 61.8612C88.2417 64.4785 88.0515 67.0477 86.1561 69.2319C85.3264 70.1922 85.1064 71.0654 85.1018 72.2388C85.1018 74.2877 85.2095 76.3917 84.7993 78.3741C83.5984 84.2001 78.7579 87.9702 72.6386 87.9794C53.8453 88.0069 35.0519 88.0069 16.2585 87.9794C8.96122 87.9633 3.8068 82.6645 3.79534 75.3489C3.79534 73.6414 3.81368 71.9317 3.7793 70.2242C3.76864 69.8318 3.64707 69.4504 3.42864 69.1241C1.91371 66.995 1.63181 64.7352 2.55773 62.2989C2.63795 62.0927 2.67691 61.7306 2.55773 61.6114C1.18031 60.2042 0.458375 58.4692 0 56.5945ZM44.4807 31.7826H64.2756C69.8616 31.7826 75.4477 31.7826 81.0338 31.7826C82.6839 31.7826 83.674 30.6367 83.3577 29.0851C82.616 25.4157 81.0735 21.9551 78.8404 18.9505C74.3759 12.9091 68.3826 8.94872 61.4222 6.40244C53.2379 3.42301 44.8084 2.70795 36.2116 4.13578C27.9356 5.51091 20.4504 8.65077 14.2096 14.3736C10.0178 18.2125 7.10481 22.8306 5.71593 28.409C5.19109 30.5244 6.23389 31.8193 8.36534 31.8079C20.3977 31.7483 32.4415 31.7826 44.4807 31.7826ZM81.6411 72.1975C80.0987 71.8881 78.7304 71.5833 77.353 71.345C76.5364 71.187 75.7072 71.1027 74.8755 71.0929C73.3147 71.1089 72.1115 72.0096 70.8991 72.8622C68.7883 74.3427 66.4597 74.8538 63.902 74.5352C61.9562 74.3061 60.3588 73.3526 58.8232 72.2434C57.2877 71.1341 55.5275 70.7032 53.7261 71.2189C52.5641 71.5512 51.4778 72.2411 50.4487 72.9103C48.4137 74.2804 45.9477 74.8583 43.5158 74.5352C41.5356 74.2946 39.9221 73.3274 38.3568 72.2136C36.9404 71.2029 35.3773 70.8935 33.6676 71.1135C32.2169 71.3014 31.1145 72.1471 29.9708 72.9264C27.8944 74.345 25.6163 74.8332 23.1273 74.5307C21.1471 74.3015 19.5313 73.332 17.966 72.2182C16.4006 71.1043 14.6817 70.6872 12.8643 71.2258C11.0468 71.7644 9.25687 72.209 7.33629 71.6842C7.33629 73.4512 7.23773 75.1334 7.36608 76.7973C7.49938 78.3372 8.0891 79.8023 9.05977 81.0052C10.962 83.4461 13.4991 84.4911 16.5496 84.4889C32.6187 84.4782 48.6863 84.4782 64.7523 84.4889C67.3879 84.4889 70.0236 84.5141 72.657 84.4889C76.4088 84.443 79.1957 82.7699 80.8642 79.3826C82.0307 77.0242 81.5907 74.4711 81.6411 72.1975ZM5.65176 35.099C5.31256 36.7033 5.95887 38.1013 7.43713 38.8737C8.46389 39.4123 9.49981 39.4192 10.632 39.1579C11.9676 38.8137 13.3314 38.5897 14.7069 38.4887C17.0194 38.381 18.9469 39.4742 20.7483 40.7989C21.8395 41.6021 23.1605 42.0323 24.5154 42.0257C25.8703 42.0191 27.187 41.576 28.2703 40.7622C29.8746 39.6163 31.5293 38.6995 33.5416 38.4955C36.3468 38.2091 38.7991 39.0043 41.0039 40.6912C42.3263 41.7019 43.8321 42.2519 45.4685 41.9563C46.5456 41.7615 47.5862 41.2687 48.59 40.8103C49.9651 40.1686 51.2325 39.1739 52.6695 38.7752C55.7406 37.9203 58.5826 38.6491 61.1976 40.5239C64.1633 42.6461 66.4529 42.637 69.4185 40.5239C72.3842 38.4107 75.563 37.8607 79.0238 39.1029C79.6096 39.3201 80.2375 39.4005 80.8592 39.3377C81.4809 39.2749 82.0799 39.0708 82.6106 38.7408C83.745 38.083 84.8383 36.1372 84.0751 34.8606C82.7229 34.9981 81.4738 35.2365 80.2224 35.2388C56.6284 35.2587 33.032 35.2587 9.43335 35.2388C8.20032 35.2503 6.96729 35.154 5.65176 35.099ZM5.85115 63.6993C5.19797 64.9919 5.60821 66.6329 6.81832 67.5955C7.32339 68.0124 7.9261 68.2943 8.56991 68.4145C9.21372 68.5348 9.87754 68.4895 10.4991 68.283C12.1423 67.7926 13.7833 67.4213 15.5274 67.6184C17.5328 67.8476 19.1944 68.7987 20.7735 69.9423C22.1242 70.9199 23.8059 71.3251 25.4535 71.0699C26.9066 70.8866 28.0136 70.0615 29.1572 69.2777C31.2818 67.8223 33.6103 67.325 36.1635 67.6573C38.1093 67.9094 39.6907 68.8812 41.2331 69.9698C42.5676 70.9192 44.2168 71.3173 45.8375 71.0814C47.3249 70.9049 48.4525 70.0546 49.619 69.2479C51.723 67.8132 54.024 67.3296 56.5474 67.6436C58.4588 67.8888 60.0356 68.8079 61.546 69.8965C62.2365 70.4006 63.0208 70.7617 63.8528 70.9585C64.6848 71.1553 65.5478 71.1838 66.391 71.0424C67.8028 70.8408 68.8822 70.018 70.003 69.2571C72.5584 67.5198 75.3132 67.1142 78.2698 67.9851C78.8968 68.2047 79.5451 68.3584 80.2041 68.4435C81.6663 68.5535 82.8787 68.0057 83.7015 66.7681C84.4143 65.7001 84.4647 64.5679 83.8528 63.3303C81.758 64.2883 79.5532 64.1531 77.3645 64.1531H53.7582C52.4289 64.1531 50.9552 63.823 49.8093 64.2883C48.6633 64.7535 47.852 66.0278 46.894 66.9469C46.8321 67.0087 46.7725 67.0706 46.7084 67.1302C45.6793 68.102 44.7901 68.0997 43.7633 67.0981C42.9749 66.3303 42.1773 65.5717 41.4394 64.7558C41.2511 64.5418 41.0155 64.3747 40.7513 64.2677C40.4872 64.1607 40.2017 64.1167 39.9175 64.1393C31.7562 64.1576 23.5948 64.1852 15.4335 64.1393C12.2226 64.137 9.00248 64.5106 5.85115 63.6993ZM53.2929 60.6969H63.5811C68.9372 60.6969 74.2934 60.6969 79.6495 60.6969C82.0628 60.6969 83.9742 59.8031 84.962 57.5295C86.6855 53.5623 84.0888 49.7166 79.7091 49.6959C74.8197 49.673 69.9304 49.6784 65.0411 49.712C64.5978 49.7303 64.1752 49.9039 63.847 50.2024C60.51 53.4592 57.2006 56.748 53.898 60.03C53.7192 60.1904 53.5771 60.3669 53.2838 60.6969H53.2929ZM30.7432 54.2797C29.3108 55.7304 27.8554 57.2156 26.3886 58.6892C25.0593 60.0254 24.2778 60.0254 22.9508 58.7076C20.1249 55.884 17.3128 53.0489 14.4709 50.2483C14.1432 49.9406 13.7204 49.7538 13.2722 49.7188C11.8559 49.657 10.4349 49.6615 9.01852 49.7028C5.22776 49.8105 2.80296 52.8885 3.62116 56.5234C4.21017 59.143 6.31869 60.6946 9.33709 60.6969C18.3121 60.6969 27.2855 60.6969 36.2574 60.6969C36.5325 60.6969 36.8098 60.6717 37.055 60.658L30.7432 54.2797ZM31.5568 49.7418L45.4112 63.5938L58.8759 49.7418H31.5568ZM79.5899 46.1871C79.5899 45.1443 79.5899 44.1656 79.5784 43.1893C79.5784 43.0472 79.4569 42.8088 79.3492 42.7859C77.9741 42.4903 76.599 42.1121 75.2101 41.9838C73.5164 41.8256 72.1963 42.8341 70.8922 43.7577C68.6714 45.3276 66.2145 45.7745 63.5582 45.362C61.7476 45.0824 60.2671 44.1519 58.8255 43.1251C57.5191 42.1923 56.0753 41.8669 54.4847 41.9654C52.8941 42.064 51.6726 42.9349 50.4372 43.7989C48.2302 45.3299 45.8031 45.7745 43.1697 45.3735C41.3568 45.1007 39.8717 44.1771 38.4301 43.148C37.1718 42.252 35.6348 41.8351 34.0962 41.9723C32.5583 42.0663 31.3689 42.8501 30.1886 43.6889C28.3891 44.9859 26.2021 45.6325 23.9867 45.5224C21.7407 45.4422 19.8614 44.5278 18.1127 43.2168C16.5771 42.0709 14.8559 41.7363 13.0178 42.0823C11.81 42.3115 10.632 42.6988 9.42877 43.0174V46.2031L79.5899 46.1871ZM19.0844 49.7051L24.6353 55.2423L28.3023 51.5753C27.7844 51.0894 27.2091 50.521 26.5972 49.9939C26.4044 49.8288 26.1629 49.7314 25.9096 49.7166C23.6544 49.6845 21.4015 49.6936 19.0844 49.6936V49.7051Z" fill="#2E52A1"/>
<path d="M51.5878 7.50244C53.8292 8.05937 56.1028 8.51316 58.303 9.19614C63.7897 10.9013 68.7356 13.5874 72.8816 17.6325C75.1915 19.8366 77.0586 22.4621 78.3821 25.3676C78.7282 26.1422 78.8221 26.8711 78.2308 27.5517C77.4057 28.5006 76.0352 28.2393 75.3545 27.075C74.4538 25.5303 73.6562 23.8985 72.5676 22.4913C69.0014 17.9075 64.2321 14.9281 58.8164 13.0488C56.3709 12.1985 53.7972 11.7218 51.2807 11.0801C50.3502 10.8509 49.8024 10.2596 49.7566 9.42991C49.7396 9.05092 49.8497 8.67711 50.0693 8.36779C50.2889 8.05847 50.6056 7.83135 50.969 7.72246C51.1645 7.67358 51.3627 7.63608 51.5626 7.61016L51.5878 7.50244Z" fill="#2E52A1"/>
<path d="M50.389 24.6115C50.3928 25.0646 50.2187 25.501 49.9041 25.8272C49.5896 26.1533 49.1597 26.343 48.7068 26.3556C48.272 26.3292 47.8633 26.139 47.563 25.8235C47.2626 25.508 47.0929 25.0904 47.088 24.6548C47.0831 24.2192 47.2433 23.7979 47.5364 23.4757C47.8295 23.1534 48.2337 22.9541 48.6678 22.9178C48.892 22.916 49.1144 22.9583 49.3223 23.0425C49.5301 23.1266 49.7194 23.2509 49.8792 23.4081C50.039 23.5654 50.1663 23.7526 50.2538 23.9591C50.3413 24.1656 50.3872 24.3872 50.389 24.6115Z" fill="#2E52A1"/>
<path d="M43.6028 9.96846C43.1485 9.95671 42.7163 9.76989 42.3964 9.44703C42.0765 9.12417 41.8938 8.69023 41.8862 8.23581C41.921 7.80174 42.1188 7.39691 42.4398 7.10271C42.7609 6.80852 43.1814 6.64676 43.6169 6.64995C44.0523 6.65314 44.4704 6.82105 44.7871 7.11993C45.1038 7.4188 45.2956 7.82648 45.324 8.26102C45.3146 8.71326 45.1298 9.14414 44.8086 9.46271C44.4875 9.78128 44.0552 9.96262 43.6028 9.96846Z" fill="#2E52A1"/>
<path d="M29.1298 16.9564C29.1213 17.4064 28.9429 17.8364 28.6304 18.1604C28.318 18.4843 27.8946 18.678 27.4453 18.7028C26.9964 18.7005 26.5654 18.5262 26.241 18.2159C25.9166 17.9055 25.7235 17.4827 25.7012 17.0344C25.6916 16.804 25.7287 16.5742 25.8104 16.3586C25.892 16.143 26.0165 15.9462 26.1762 15.78C26.336 15.6138 26.5278 15.4817 26.74 15.3916C26.9522 15.3015 27.1804 15.2554 27.4109 15.2559C27.8617 15.2622 28.2924 15.4429 28.6129 15.7599C28.9334 16.077 29.1186 16.5058 29.1298 16.9564Z" fill="#2E52A1"/>
<path d="M40.894 18.7052C40.4436 18.7001 40.0116 18.526 39.6835 18.2174C39.3554 17.9088 39.1551 17.4883 39.1224 17.039C39.1183 16.5888 39.286 16.154 39.5913 15.8232C39.8967 15.4923 40.3166 15.2903 40.7657 15.2582C40.9953 15.2475 41.2247 15.2829 41.4403 15.3625C41.656 15.442 41.8534 15.5641 42.021 15.7214C42.1886 15.8787 42.3229 16.0681 42.4159 16.2783C42.5089 16.4885 42.5588 16.7152 42.5625 16.9451C42.5625 17.3963 42.3895 17.8303 42.0791 18.1578C41.7687 18.4852 41.3446 18.6812 40.894 18.7052Z" fill="#2E52A1"/>
<path d="M18.9881 21.719C19.3285 21.7051 19.6653 21.7926 19.9559 21.9705C20.2464 22.1483 20.4775 22.4085 20.6199 22.718C20.7623 23.0274 20.8095 23.3722 20.7556 23.7086C20.7016 24.045 20.549 24.3577 20.317 24.6071C20.085 24.8566 19.7841 25.0314 19.4525 25.1095C19.1209 25.1877 18.7736 25.1655 18.4547 25.0458C18.1357 24.9262 17.8595 24.7145 17.6611 24.4376C17.4627 24.1607 17.351 23.8311 17.3403 23.4906C17.3311 23.2658 17.3665 23.0414 17.4446 22.8304C17.5226 22.6194 17.6416 22.4259 17.7949 22.2612C17.9481 22.0965 18.1324 21.9638 18.3372 21.8707C18.5421 21.7776 18.7633 21.726 18.9881 21.719Z" fill="#2E52A1"/>
<path d="M34.7036 23.4814C34.6986 23.146 34.7932 22.8166 34.9753 22.5349C35.1573 22.2531 35.4188 22.0316 35.7266 21.8982C36.0345 21.7649 36.3749 21.7257 36.705 21.7856C37.0351 21.8455 37.34 22.0019 37.5813 22.2349C37.8227 22.4679 37.9896 22.7672 38.061 23.095C38.1324 23.4228 38.1052 23.7644 37.9827 24.0767C37.8602 24.389 37.6479 24.658 37.3727 24.8498C37.0975 25.0417 36.7716 25.1477 36.4362 25.1545C36.2124 25.1591 35.9899 25.1193 35.7815 25.0376C35.5732 24.9559 35.383 24.8338 35.222 24.6783C35.061 24.5228 34.9323 24.337 34.8433 24.1316C34.7543 23.9262 34.7068 23.7053 34.7036 23.4814Z" fill="#2E52A1"/>
</svg>
