<svg width="88" height="88" viewBox="0 0 88 88" fill="none" xmlns="http://www.w3.org/2000/svg">
<path d="M41.7692 87.9839C40.1099 87.7085 38.4207 87.5548 36.7981 87.1348C23.8471 83.7978 15.4105 75.6848 12.2778 62.6971C8.19716 45.7642 18.1118 29.0723 34.7693 24.0507C34.9575 23.9933 35.1388 23.9084 35.3843 23.8212C35.3843 22.3409 35.3843 20.8537 35.3843 19.3688C35.4004 16.7754 37.0345 15.1597 39.644 15.1505C40.4748 15.1505 41.3033 15.1505 42.2764 15.1505V14.2302C42.2764 10.1649 42.2764 6.09956 42.2764 2.03426C42.2764 1.14149 42.577 0.464447 43.4492 0.143139C44.5967 -0.28374 45.7052 0.581494 45.7098 1.93787C45.7258 5.34373 45.7098 8.75188 45.7098 12.1577V15.1482C46.6278 15.1482 47.4793 15.1482 48.3284 15.1482C50.9723 15.1482 52.5881 16.78 52.5995 19.4422C52.5995 20.8996 52.5995 22.3547 52.5995 23.6238C54.9657 24.6589 57.3273 25.4415 59.4365 26.6556C71.1206 33.3755 76.8651 43.5472 76.5507 57.0237C76.4956 59.3417 75.8851 61.6551 75.4491 63.9548C75.2563 64.9784 74.5127 65.4511 73.613 65.3639C72.5435 65.2652 71.9468 64.3587 72.1511 63.1859C72.477 61.3017 72.7891 59.4129 73.1035 57.5263C73.113 57.3926 73.113 57.2584 73.1035 57.1247H61.346C60.8479 61.0699 60.3476 65.0243 59.8335 69.0911C60.6873 69.0911 61.6948 69.0911 62.7046 69.0911C63.9577 69.0911 64.7495 69.7475 64.7702 70.7757C64.7908 71.8038 63.9784 72.5176 62.6817 72.5245C61.5342 72.5245 60.3866 72.4969 59.2391 72.5474C59.0902 72.5611 58.9467 72.6099 58.8203 72.6897C58.6938 72.7694 58.5881 72.878 58.5116 73.0064C57.2975 76.573 55.6887 79.9283 53.2146 83.0427C55.7392 82.2303 57.97 81.2067 59.9666 79.7654C61.6329 78.5674 63.1797 77.1995 64.7472 75.8638C65.6079 75.1362 66.5718 75.0376 67.2718 75.7123C68.0292 76.4352 67.9993 77.4497 67.1685 78.2919C64.1145 81.4084 60.4586 83.8712 56.4231 85.5305C53.3541 86.811 50.0998 87.5912 46.7839 87.8417C46.5885 87.8723 46.3959 87.9183 46.2078 87.9794L41.7692 87.9839ZM30.2801 53.5582H42.2282V41.656H31.9234C30.8998 45.5645 30.4293 49.4982 30.271 53.5628L30.2801 53.5582ZM42.2144 69.0819V57.1132H30.2801C30.3839 61.0154 30.9079 64.895 31.8431 68.6849C31.8929 68.788 31.9677 68.8771 32.0607 68.944C32.1537 69.0109 32.2619 69.0536 32.3755 69.0681C35.6322 69.0819 38.8912 69.0819 42.2144 69.0819ZM45.774 41.5964V53.5697H57.7083C57.6066 49.6675 57.0834 45.7877 56.1477 41.998C56.0972 41.8956 56.0225 41.807 55.9302 41.7398C55.8378 41.6726 55.7305 41.6289 55.6175 41.6124C52.354 41.5941 49.095 41.601 45.774 41.601V41.5964ZM45.774 57.0971V69.0819C49.1088 69.0819 52.3953 69.0934 55.6795 69.0567C55.8608 69.0567 56.1546 68.694 56.1982 68.4622C56.6205 66.2751 57.0565 64.0856 57.3709 61.8823C57.6004 60.3125 57.6326 58.7175 57.7542 57.0994L45.774 57.0971ZM61.362 53.5719H73.1012C73.0484 50.0881 71.6714 44.9609 69.9639 42.0485C69.8583 41.9177 69.7257 41.8112 69.5752 41.7364C69.4247 41.6615 69.2598 41.62 69.0918 41.6147C66.4869 41.5803 63.882 41.5941 61.2771 41.5941H59.8312C60.3407 45.6265 60.8411 49.574 61.3506 53.5765L61.362 53.5719ZM26.6448 57.1063H14.8987C14.9446 60.5719 16.3216 65.699 18.036 68.6275C18.1411 68.7585 18.2732 68.8653 18.4233 68.9406C18.5734 69.0159 18.738 69.0578 18.9059 69.0635C21.5108 69.0957 24.1156 69.0819 26.7205 69.0819H28.1549C27.6431 65.0587 27.1428 61.125 26.6333 57.1109L26.6448 57.1063ZM26.6448 53.5811C27.1612 49.5258 27.6638 45.5898 28.171 41.5941C25.83 41.5941 23.3284 41.7754 20.8658 41.5413C18.7269 41.337 17.717 42.1082 17.0239 44.0658C15.9315 47.1504 15.0456 50.2487 14.8872 53.5765L26.6448 53.5811ZM55.1792 38.1308C54.2474 36.1984 53.4395 34.3509 52.4779 32.5837C51.3786 30.5618 49.9533 28.7601 48.0094 27.4726C47.337 27.032 46.5796 26.7221 45.7947 26.3251V38.1377L55.1792 38.1308ZM32.9332 38.0987H42.2282V26.3228C36.8991 28.5811 34.9368 33.2791 32.9332 38.0987ZM33.0618 72.5428C33.0569 72.6336 33.0639 72.7247 33.0824 72.8137C33.289 73.3759 33.484 73.9428 33.7204 74.4936C35.0584 77.6149 36.6397 80.587 39.3709 82.7375C40.1994 83.387 41.1885 83.8322 42.2121 84.4358V72.5474L33.0618 72.5428ZM45.7649 72.5566V84.1856C49.157 83.5912 54.5549 76.6533 54.8602 72.5566H45.7649ZM53.4326 27.7824C55.6487 30.7516 57.3465 34.0743 58.4542 37.6099C58.6172 38.1056 58.8949 38.1699 59.3355 38.1653C61.8601 38.1515 64.3731 38.1653 66.8931 38.1653C67.0767 38.1653 67.258 38.1331 67.5495 38.1033C63.8361 33.1598 59.184 29.7264 53.4326 27.787V27.7824ZM34.5099 27.7205C28.8044 29.7241 24.1432 33.1529 20.4206 38.1217H29.2221C30.0024 36.2856 30.6703 34.4496 31.547 32.7283C32.4237 31.007 33.507 29.4051 34.5099 27.7251V27.7205ZM20.4872 72.5245C23.0117 76.6992 30.971 82.4988 34.6224 82.8522C32.2654 79.8801 30.6772 76.5431 29.4746 72.9996C29.4242 72.8838 29.347 72.7817 29.2491 72.7018C29.1513 72.622 29.0358 72.5667 28.9123 72.5406C26.1422 72.5245 23.3697 72.5245 20.4872 72.5245ZM38.8223 22.653H49.1661C49.1661 21.5055 49.2051 20.3855 49.134 19.2816C49.1202 19.036 48.7232 18.6183 48.496 18.6137C45.4986 18.5678 42.5005 18.5678 39.5017 18.6137C39.2722 18.6137 38.8682 19.0291 38.8522 19.2724C38.7856 20.374 38.8223 21.4848 38.8223 22.6507V22.653Z" fill="#2E52A1"/>
<path d="M7.22855 87.984C6.79106 87.6721 6.36976 87.3381 5.96627 86.9834C4.21897 85.2529 2.48239 83.5125 0.756507 81.7621C-0.251021 80.7477 -0.253316 79.8893 0.756507 78.8772C2.59255 77.0412 4.42859 75.2051 6.26463 73.3691C7.24003 72.4006 8.11444 72.3937 9.09213 73.3691C10.9618 75.2174 12.8208 77.0764 14.6691 78.9461C15.5871 79.8825 15.5871 80.7821 14.6691 81.7162C12.8193 83.5844 10.9603 85.4434 9.09213 87.2932C8.83509 87.5479 8.53903 87.766 8.26133 88.0001L7.22855 87.984ZM7.6256 83.6716L11.0016 80.307L7.68986 77.0068L4.31843 80.3621L7.6256 83.6716Z" fill="#2E52A1"/>
<path d="M79.727 87.9839C77.5077 85.8036 75.2746 83.6394 73.0828 81.4338C72.9318 81.2866 72.8121 81.1105 72.7307 80.916C72.6494 80.7215 72.6081 80.5126 72.6094 80.3017C72.6107 80.0909 72.6545 79.8825 72.7382 79.6889C72.8219 79.4954 72.9438 79.3208 73.0966 79.1755C75.0856 77.1283 77.1083 75.1056 79.1647 73.1074C79.3098 72.9543 79.4844 72.8321 79.678 72.7483C79.8715 72.6644 80.08 72.6205 80.2909 72.6192C80.5019 72.6179 80.7109 72.6592 80.9054 72.7408C81.1 72.8223 81.276 72.9423 81.423 73.0936C83.6286 75.2854 85.7836 77.5184 87.9731 79.7378V80.7682C87.6589 81.2036 87.3226 81.6226 86.9656 82.0236C85.33 83.6883 83.6783 85.3415 82.0106 86.9832C81.6108 87.34 81.1925 87.6756 80.7575 87.9885L79.727 87.9839ZM80.326 76.9539L76.9752 80.3001L80.2847 83.6233L83.6423 80.2679L80.326 76.9539Z" fill="#2E52A1"/>
<path d="M22.0317 15.5108C21.529 15.2285 21.0195 15.0518 20.6753 14.7282C18.7543 12.8532 16.8563 10.9437 14.9675 9.02959C14.1206 8.17124 14.1068 7.23257 14.9445 6.3811C16.8525 4.44408 18.7765 2.52159 20.7166 0.61364C21.5497 -0.203399 22.4608 -0.205694 23.3008 0.61364C25.2424 2.517 27.1649 4.44026 29.0683 6.3834C29.906 7.23716 29.8853 8.17125 29.0361 9.03418C27.145 10.9528 25.2447 12.8532 23.3192 14.7397C22.9933 15.0587 22.5205 15.2262 22.0317 15.5108ZM22.0317 10.9987L25.2906 7.75125L21.9307 4.39129L18.6717 7.66633L22.0317 10.9987Z" fill="#2E52A1"/>
<path d="M78.8869 14.6364C78.4875 14.6364 78.0859 14.6616 77.6889 14.6364C77.2703 14.6191 76.8738 14.4437 76.5794 14.1455C76.2851 13.8474 76.1148 13.4487 76.103 13.0299C76.0617 12.1486 76.6171 11.3545 77.5053 11.2696C78.4691 11.1732 79.4401 11.1732 80.4039 11.2696C81.2852 11.3614 81.8452 12.1876 81.7809 13.0482C81.7575 13.4656 81.5783 13.8591 81.2786 14.1506C80.979 14.4422 80.5808 14.6106 80.1629 14.6226C79.7452 14.6616 79.3138 14.6387 78.8869 14.6364Z" fill="#2E52A1"/>
<path d="M10.3269 16.8717C10.3269 17.2711 10.3521 17.6727 10.3269 18.0698C10.3067 18.5166 10.1143 18.9384 9.78992 19.2464C9.46558 19.5545 9.03454 19.725 8.58721 19.7222C8.15395 19.7127 7.7405 19.5389 7.43067 19.2358C7.12085 18.9328 6.93782 18.5234 6.9187 18.0904C6.8728 17.2641 6.8728 16.4358 6.9187 15.6095C6.94267 15.1769 7.13081 14.7698 7.44472 14.4713C7.75863 14.1727 8.17465 14.0052 8.60786 14.0029C9.0404 14.004 9.45664 14.1681 9.77355 14.4624C10.0905 14.7568 10.2848 15.1598 10.3177 15.5911C10.3567 16.0157 10.3177 16.4472 10.3177 16.874L10.3269 16.8717Z" fill="#2E52A1"/>
<path d="M74.9188 18.6779C74.9188 19.0772 74.9417 19.4789 74.9188 19.8759C74.8983 20.3044 74.7168 20.7095 74.4106 21.01C74.1044 21.3105 73.6961 21.4844 73.2673 21.4968C72.8384 21.5093 72.4207 21.3595 72.0975 21.0772C71.7744 20.795 71.5697 20.4012 71.5244 19.9746C71.4636 19.1212 71.4636 18.2645 71.5244 17.411C71.5469 16.969 71.7406 16.5531 72.0645 16.2514C72.3884 15.9498 72.817 15.7861 73.2595 15.795C73.7021 15.804 74.1237 15.9849 74.4351 16.2994C74.7466 16.6139 74.9233 17.0373 74.9279 17.4799C74.9394 17.8792 74.9211 18.2785 74.9188 18.6779Z" fill="#2E52A1"/>
<path d="M6.88418 28.3218C6.88418 27.9224 6.86352 27.5231 6.88418 27.1237C6.89675 26.6767 7.08354 26.2522 7.40469 25.9409C7.72584 25.6296 8.15592 25.4562 8.60317 25.4575C9.03705 25.4576 9.45431 25.6243 9.7687 25.9233C10.0831 26.2224 10.2705 26.6307 10.2923 27.0641C10.3394 27.8904 10.3394 28.7187 10.2923 29.545C10.2669 29.9819 10.0747 30.3924 9.7553 30.6917C9.43595 30.991 9.01387 31.1562 8.57621 31.1533C8.13855 31.1503 7.71873 30.9794 7.40343 30.6759C7.08813 30.3723 6.90144 29.9593 6.88189 29.5221C6.86811 29.1227 6.88418 28.7211 6.88418 28.3218Z" fill="#2E52A1"/>
<path d="M74.9211 7.2187C74.9211 7.61804 74.9417 8.01968 74.9211 8.41672C74.9111 8.84954 74.7339 9.26167 74.4267 9.56673C74.1195 9.87179 73.7061 10.0461 73.2732 10.0531C72.839 10.0808 72.4114 9.93569 72.0837 9.64933C71.7561 9.36298 71.555 8.95865 71.5244 8.52459C71.4567 7.64306 71.4567 6.75763 71.5244 5.8761C71.5636 5.44075 71.769 5.03723 72.0979 4.74928C72.4267 4.46133 72.8538 4.31106 73.2906 4.32967C73.7273 4.34827 74.14 4.53431 74.4432 4.84919C74.7464 5.16406 74.9167 5.58358 74.9188 6.02069C74.9394 6.42691 74.9211 6.81936 74.9211 7.2187Z" fill="#2E52A1"/>
<path d="M67.4553 14.6388C67.056 14.6388 66.6566 14.6617 66.2596 14.6388C65.8299 14.6167 65.4246 14.4327 65.1253 14.1237C64.8259 13.8148 64.6548 13.4038 64.6463 12.9737C64.6379 12.5436 64.7928 12.1263 65.0798 11.8058C65.3668 11.4853 65.7646 11.2855 66.193 11.2467C67.0464 11.1847 67.9032 11.1847 68.7566 11.2467C68.9789 11.2573 69.1967 11.3126 69.3971 11.4095C69.5974 11.5063 69.7762 11.6426 69.9226 11.8102C70.0689 11.9778 70.18 12.1733 70.249 12.3848C70.318 12.5964 70.3435 12.8197 70.3241 13.0414C70.2805 13.9479 69.6218 14.5906 68.6533 14.6479C68.2563 14.6709 67.8547 14.6479 67.4553 14.6479V14.6388Z" fill="#2E52A1"/>
<path d="M2.8289 24.2709C2.40202 24.2709 1.97055 24.3031 1.54596 24.2709C1.14289 24.2383 0.765603 24.0596 0.484988 23.7685C0.204373 23.4773 0.0397495 23.0936 0.0220498 22.6896C-0.0261463 21.8956 0.464995 21.0831 1.26597 20.9844C2.33744 20.8639 3.41904 20.8639 4.49052 20.9844C5.3305 21.0831 5.78952 21.9024 5.7046 22.7791C5.67161 23.1658 5.50153 23.5279 5.22504 23.8002C4.94855 24.0725 4.58386 24.237 4.19675 24.264C3.74462 24.3054 3.28561 24.2732 2.8289 24.2709Z" fill="#2E52A1"/>
<path d="M14.3479 24.2687C13.8889 24.2687 13.4299 24.3054 12.9709 24.2687C12.5842 24.2359 12.2221 24.0655 11.9504 23.7884C11.6788 23.5112 11.5156 23.1458 11.4906 22.7585C11.4217 21.8887 11.8876 21.0831 12.7368 20.9844C13.7809 20.8685 14.8346 20.8685 15.8787 20.9844C16.7187 21.074 17.242 21.9162 17.1731 22.7356C17.1462 23.138 16.974 23.5169 16.6886 23.8018C16.4032 24.0868 16.0241 24.2584 15.6217 24.2847C15.1971 24.3192 14.7656 24.2847 14.3387 24.2847L14.3479 24.2687Z" fill="#2E52A1"/>
<path d="M72.5 70.7664C72.502 71.2113 72.334 71.6402 72.0302 71.9653C71.7264 72.2904 71.3099 72.4871 70.8659 72.5152C70.5259 72.5307 70.1891 72.4444 69.8984 72.2676C69.6077 72.0907 69.3763 71.8312 69.2337 71.5222C69.0911 71.2132 69.0439 70.8688 69.0979 70.5328C69.152 70.1969 69.305 69.8846 69.5373 69.636C69.7696 69.3873 70.0708 69.2136 70.4023 69.1369C70.7338 69.0601 71.0807 69.0839 71.3986 69.2053C71.7166 69.3266 71.9911 69.5399 72.1873 69.8179C72.3835 70.096 72.4923 70.4262 72.5 70.7664Z" fill="#2E52A1"/>
</svg>
