<svg width="49" height="17" viewBox="0 0 49 17" fill="none" xmlns="http://www.w3.org/2000/svg">
<path d="M20.4033 15.8726V6.12305C20.4033 5.26171 20.7455 4.43565 21.3545 3.82659C21.9636 3.21753 22.7897 2.87537 23.651 2.87537L26.5293 2.87938C27.3884 2.88111 28.2117 3.22363 28.8185 3.83176C29.4253 4.4399 29.7661 5.26395 29.7659 6.12305V8.19783C29.7659 9.05922 29.4238 9.88533 28.8148 10.4945C28.2057 11.1036 27.3796 11.4459 26.5183 11.446H22.45" stroke="#2E52A1" stroke-linecap="round" stroke-linejoin="round"/>
<path d="M30.5713 2.87476H31.82C32.1735 2.87476 32.5126 3.0152 32.7625 3.26518C33.0125 3.51517 33.153 3.85422 33.153 4.20776V11.4901" stroke="#2E52A1" stroke-linecap="round" stroke-linejoin="round"/>
<path d="M32.8853 1.7466L32.3192 1.17997C32.2858 1.1466 32.2593 1.10697 32.2412 1.06336C32.2232 1.01974 32.2139 0.972986 32.2139 0.92577C32.2139 0.878555 32.2232 0.831802 32.2412 0.788184C32.2593 0.744567 32.2858 0.704939 32.3192 0.671567L32.8853 0.105443C32.9529 0.0379261 33.0445 0 33.1401 0C33.2356 0 33.3272 0.0379261 33.3948 0.105443L33.9604 0.671567C33.9938 0.704939 34.0203 0.744567 34.0384 0.788184C34.0564 0.831802 34.0657 0.878555 34.0657 0.92577C34.0657 0.972986 34.0564 1.01974 34.0384 1.06336C34.0203 1.10697 33.9938 1.1466 33.9604 1.17997L33.3923 1.7466C33.3588 1.78002 33.3192 1.80652 33.2755 1.82461C33.2318 1.84269 33.1851 1.852 33.1378 1.852C33.0905 1.852 33.0437 1.84269 33.0001 1.82461C32.9564 1.80652 32.9168 1.78002 32.8833 1.7466" fill="#2E52A1"/>
<path d="M35.5498 2.86829H36.7879C37.4248 2.86802 38.0358 3.12077 38.4863 3.57092L41.3827 6.46729C41.4719 6.55656 41.5777 6.62739 41.6943 6.67571C41.8109 6.72403 41.9358 6.7489 42.062 6.7489C42.1882 6.7489 42.3131 6.72403 42.4297 6.67571C42.5462 6.62739 42.6521 6.55656 42.7413 6.46729L45.6271 3.58196C45.8501 3.35904 46.1148 3.18224 46.4061 3.06168C46.6975 2.94112 47.0097 2.87915 47.325 2.87933H48.3318" stroke="#2E52A1" stroke-linecap="round" stroke-linejoin="round"/>
<path d="M35.5498 11.4263H36.7879C37.4248 11.4265 38.0357 11.1738 38.4863 10.7237L41.3827 7.82734C41.5629 7.64728 41.8072 7.54614 42.062 7.54614C42.3167 7.54614 42.5611 7.64728 42.7413 7.82734L45.6271 10.7132C46.0775 11.1632 46.6882 11.416 47.325 11.4158H48.3318" stroke="#2E52A1" stroke-linecap="round" stroke-linejoin="round"/>
<path d="M13.0226 13.2764C12.7171 13.2775 12.4145 13.2181 12.1321 13.1016C11.8497 12.985 11.5932 12.8136 11.3775 12.5974L9.00104 10.2195C8.91699 10.1391 8.80517 10.0942 8.68887 10.0942C8.57257 10.0942 8.46075 10.1391 8.3767 10.2195L5.99225 12.6039C5.77662 12.8205 5.5202 12.9922 5.23782 13.1091C4.95544 13.226 4.6527 13.2858 4.34708 13.285H3.88184L6.89313 16.2963C7.34477 16.7469 7.95674 17 8.59477 17C9.23279 17 9.84477 16.7469 10.2964 16.2963L13.3137 13.2784L13.0226 13.2764Z" fill="#2E52A1"/>
<path d="M4.34758 4.87287C4.6532 4.87205 4.95596 4.93182 5.23834 5.04872C5.52072 5.16562 5.77714 5.33733 5.99275 5.55392L8.3772 7.93887C8.46008 8.0215 8.57234 8.0679 8.68937 8.0679C8.8064 8.0679 8.91866 8.0215 9.00154 7.93887L11.3775 5.56296C11.5929 5.34609 11.8493 5.17417 12.1317 5.05717C12.4141 4.94018 12.7169 4.88043 13.0226 4.8814H13.3087L10.2914 1.86408C10.0679 1.64057 9.80267 1.46326 9.5107 1.34229C9.21873 1.22132 8.90579 1.15906 8.58975 1.15906C8.27371 1.15906 7.96076 1.22132 7.66879 1.34229C7.37682 1.46326 7.11155 1.64057 6.88811 1.86408L3.88184 4.87287H4.34758Z" fill="#2E52A1"/>
<path d="M15.8039 7.37763L13.9805 5.55429C13.9394 5.5711 13.8955 5.57996 13.8511 5.58039H13.022C12.5905 5.58147 12.1769 5.75282 11.8711 6.05718L9.49522 8.43159C9.28125 8.64517 8.99127 8.76513 8.68895 8.76513C8.38662 8.76513 8.09664 8.64517 7.88267 8.43159L5.49773 6.04815C5.19201 5.7436 4.77843 5.57207 4.34691 5.57086H3.32909C3.28714 5.56991 3.24569 5.56159 3.20663 5.54626L1.37175 7.37763C0.921074 7.82927 0.667969 8.44124 0.667969 9.07927C0.667969 9.7173 0.921074 10.3293 1.37175 10.7809L3.20262 12.6118C3.24159 12.5962 3.2831 12.5878 3.32508 12.5872H4.34691C4.77842 12.5859 5.19198 12.4144 5.49773 12.1099L7.88217 9.72544C8.31329 9.29483 9.06461 9.29483 9.49522 9.72544L11.8711 12.1009C12.1769 12.4052 12.5905 12.5766 13.022 12.5776H13.8511C13.8955 12.578 13.9395 12.5868 13.9805 12.6037L15.8039 10.7804C16.0274 10.557 16.2047 10.2917 16.3257 9.99972C16.4467 9.70775 16.5089 9.39481 16.5089 9.07877C16.5089 8.76273 16.4467 8.44978 16.3257 8.15781C16.2047 7.86584 16.0274 7.60056 15.8039 7.37713" fill="#2E52A1"/>
</svg>
