<svg width="88" height="88" viewBox="0 0 88 88" fill="none" xmlns="http://www.w3.org/2000/svg">
<path d="M2.80729 42.5792V8.51583C2.33292 8.51583 1.89062 8.53417 1.46437 8.51583C0.5775 8.46542 0.0320833 7.94292 0.020625 7.04917C-0.006875 5.18528 -0.006875 3.32139 0.020625 1.4575C0.034375 0.568333 0.584375 0.061875 1.48042 0C1.68667 0 1.89292 0 2.10146 0C30.0338 0 57.9639 0.00381944 85.8917 0.0114583C86.35 0.0114583 86.9435 -0.0114583 87.2437 0.240625C87.6422 0.604515 87.8933 1.10189 87.9496 1.63854C88.0344 3.26104 87.984 4.88812 87.9817 6.51521C87.9817 8.08729 87.56 8.50667 85.9902 8.51583H85.2133V42.5815C85.6235 42.5815 86.0544 42.5654 86.4829 42.5815C87.3881 42.6227 87.961 43.1269 87.9679 44.0046C87.9939 46.8432 87.9939 49.681 87.9679 52.5181C87.9679 53.3592 87.3973 53.8633 86.5517 53.9252C86.2881 53.9435 86.02 53.9252 85.7542 53.9252H2.2275C0.3575 53.9252 0.00916666 53.5792 0.00916666 51.7092V44.605C0.00916666 42.971 0.405625 42.5769 2.04646 42.5631C2.27792 42.5769 2.52083 42.5792 2.80729 42.5792ZM16.3029 12.4896C15.8125 13.0625 15.5169 13.5071 15.125 13.8462C14.4192 14.4375 14.1694 15.125 14.174 16.0646C14.2152 24.5437 14.1992 33.0229 14.1992 41.5021V42.5012H32.6448C32.6448 40.3012 32.6448 38.1746 32.6448 36.0479C32.6448 34.4804 33.0687 34.0587 34.6431 34.0565H53.2583C54.9519 34.0565 55.346 34.4506 55.346 36.135C55.346 38.2548 55.346 40.3746 55.346 42.5173H73.7321C73.7581 42.4172 73.7765 42.3153 73.7871 42.2125C73.7871 33.2292 73.7871 24.2443 73.7871 15.2579C73.7963 15.0288 73.7329 14.8026 73.606 14.6117C73.0354 13.9081 72.4281 13.2367 71.6787 12.3727L69.284 15.0265L67.0106 12.9754L69.7606 10.6104C69.0594 9.95958 68.4956 9.39354 67.8814 8.89396C67.6212 8.68089 67.3005 8.55503 66.9648 8.53417C51.6549 8.51583 36.3451 8.51278 21.0352 8.525C20.7775 8.50958 20.5212 8.57443 20.3019 8.71062C19.5937 9.27437 18.9269 9.88854 18.0675 10.6402L20.7006 12.996C20.0131 13.7431 19.4173 14.4077 18.7275 15.1708L16.3029 12.4896ZM2.88979 51.0354H85.0735V45.4598H2.88979V51.0354ZM2.88979 5.61917H85.0735V2.88521H2.88979V5.61917ZM35.5208 42.515H52.4356V36.9508H35.5208V42.515ZM11.2842 20.4737V10.9244L6.50604 15.6865L11.2842 20.4737ZM76.6769 10.7892V20.3615L81.4642 15.5833L76.6769 10.7892ZM6.58167 32.4958L11.2956 37.2075V27.7865L6.58167 32.4958ZM76.6654 37.2969L81.3542 32.6058L76.6723 27.9171L76.6654 37.2969ZM82.2273 29.0079V19.4494C80.6667 21.01 79.0396 22.6302 77.4583 24.2115L82.2273 29.0079ZM5.75208 19.3394V28.9369L10.5417 24.145L5.75208 19.3394ZM82.2937 36.0937C80.3619 38.0256 78.5698 39.8017 76.8144 41.6098C76.631 41.7954 76.6585 42.1873 76.5852 42.5081H82.2983L82.2937 36.0937ZM5.72917 42.531H11.566C11.3048 42.0337 11.1742 41.6144 10.9175 41.3279C10.4156 40.7481 9.84271 40.2348 9.31333 39.6917C8.1675 38.5321 7.02167 37.3702 5.73375 36.0685L5.72917 42.531ZM9.10937 8.56854H5.75208V11.8685L9.10937 8.56854ZM79.0052 8.56854L82.2342 11.8204V8.56167L79.0052 8.56854ZM14.2083 10.5165L16.1517 8.58458H14.2083V10.5165ZM71.7796 8.53646L73.7206 10.4271V8.53646H71.7796Z" fill="#2E52A1"/>
<path d="M21.6082 71.8552L23.815 70.0769C25.064 71.6375 26.3954 73.0698 27.4542 74.6832C28.5129 76.2965 29.7459 76.8167 31.6227 76.6998C32.874 76.6219 33.7311 76.3744 34.4873 75.3111C35.7523 73.5327 37.1915 71.8736 38.6352 70.0769L40.8421 71.8461C39.8498 73.095 38.9836 74.4127 37.8904 75.5013C35.9379 77.44 35.0832 79.6469 35.4521 82.4015C35.624 83.6802 35.4911 85.0002 35.4796 86.2973C35.4796 87.4592 34.9571 87.9794 33.8044 87.9886C32.12 88.0023 30.4357 87.9886 28.7627 87.9886C27.484 87.9886 26.9867 87.4913 26.9821 86.224C26.9821 83.8888 27.0004 81.5536 26.9615 79.2207C26.9449 78.7917 26.7986 78.3778 26.5421 78.0336C24.9357 75.9871 23.2994 73.9681 21.6082 71.8552ZM32.5898 85.1469V79.5415H29.8765V85.1377L32.5898 85.1469Z" fill="#2E52A1"/>
<path d="M68.4314 71.8505L70.6429 70.0768C72.247 72.0911 73.8306 74.0368 75.3729 76.0076C75.5144 76.2263 75.713 76.4022 75.9473 76.5161C76.1816 76.63 76.4426 76.6776 76.702 76.6538C77.8777 76.5851 79.2229 76.9311 80.1899 76.4705C81.1272 76.0236 81.6887 74.7793 82.4106 73.8832C83.4097 72.6411 84.4043 71.3945 85.4631 70.0745L87.6676 71.8528C86.0497 73.8763 84.4822 75.8655 82.8758 77.8111C82.4735 78.2766 82.2651 78.8787 82.2937 79.4932C82.3281 81.7093 82.3097 83.9253 82.2937 86.139C82.2937 87.482 81.8102 87.9724 80.497 87.9724C78.873 87.9724 77.2474 87.9724 75.6204 87.9724C74.2454 87.9724 73.787 87.4911 73.787 86.0886C73.787 83.813 73.8077 81.5351 73.7664 79.2595C73.749 78.8034 73.5958 78.3629 73.3264 77.9945C71.7451 75.964 70.1089 73.9474 68.4314 71.8505ZM79.452 79.5345H76.702V85.0849H79.452V79.5345Z" fill="#2E52A1"/>
<path d="M47.1487 71.8506L49.3601 70.0769C50.9299 72.0408 52.4768 73.9337 53.9687 75.8656C54.4064 76.4339 54.8487 76.7135 55.5889 76.6562C56.7026 76.5714 57.9768 76.9152 58.9003 76.4775C59.8239 76.0398 60.3281 74.8733 61.0133 74.0277C62.0491 72.7398 63.0758 71.4473 64.178 70.0723L66.3826 71.8506C64.861 73.755 63.4035 75.6456 61.8703 77.4652C61.5679 77.799 61.3352 78.1899 61.186 78.6149C61.0369 79.04 60.9742 79.4906 61.0018 79.9402C61.0706 82.0371 61.027 84.1362 61.0201 86.2354C61.0201 87.4637 60.5137 87.9839 59.322 87.9908C57.6078 88.0015 55.8937 88.0015 54.1795 87.9908C53.0337 87.9908 52.5181 87.4614 52.5112 86.2927C52.5112 83.9873 52.5364 81.6819 52.486 79.3787C52.4691 78.8659 52.2982 78.37 51.9956 77.9556C50.4326 75.9206 48.8124 73.9291 47.1487 71.8506ZM55.3987 79.5162V85.1033H58.1349V79.5208L55.3987 79.5162Z" fill="#2E52A1"/>
<path d="M0.323242 71.8507L2.53928 70.0815C4.0472 71.9699 5.54824 73.7826 6.97137 75.6572C7.52137 76.379 8.1172 76.5738 9.01782 76.6907C11.298 76.9817 12.8472 76.2324 14.0595 74.2615C14.9349 72.8384 16.122 71.6124 17.1853 70.2993C17.2531 70.2315 17.3251 70.1679 17.4007 70.109L19.5641 71.8507C18.0997 73.684 16.7087 75.5174 15.2214 77.2545C14.8543 77.6493 14.5719 78.115 14.3914 78.623C14.2109 79.131 14.1362 79.6705 14.1718 80.2084C14.268 82.2136 14.2039 84.2257 14.197 86.2355C14.197 87.5028 13.6928 87.9932 12.4141 88.0001C10.7297 88.0001 9.04532 88.0001 7.36095 88.0001C6.21512 88.0001 5.69491 87.473 5.68803 86.3088C5.67657 84.1524 5.63762 81.9913 5.70637 79.8372C5.74694 78.9876 5.44856 78.1568 4.87678 77.5272C3.34595 75.6824 1.87699 73.7918 0.323242 71.8507ZM8.57324 79.4957V85.092H11.2889V79.4957H8.57324Z" fill="#2E52A1"/>
<path d="M28.7009 60.1449L30.9123 61.914L28.9736 64.3386C27.7934 65.8167 26.6521 67.3315 25.4032 68.7478C24.9904 69.182 24.4344 69.4522 23.838 69.5086C22.1257 69.5968 20.41 69.5968 18.6977 69.5086C18.1518 69.4747 17.6384 69.2376 17.2586 68.844C15.3817 66.6005 13.5805 64.2951 11.6807 61.9186L13.8738 60.1426L15.4986 62.157C15.9569 62.7322 16.4152 63.3142 16.885 63.8849C17.6527 64.8176 18.26 66.1032 19.25 66.5707C20.24 67.0382 21.6242 66.7288 22.8342 66.6784C23.222 66.6424 23.582 66.4615 23.8425 66.172C25.4605 64.2195 27.0417 62.2257 28.7009 60.1449Z" fill="#2E52A1"/>
<path d="M74.1078 60.1401L76.317 61.9184L74.5363 64.1436C73.2988 65.6905 72.098 67.2672 70.8009 68.7613C70.4134 69.1829 69.8854 69.4485 69.3159 69.5084C67.5765 69.6001 65.828 69.5863 64.0863 69.5084C63.5676 69.4855 63.0766 69.2679 62.7113 68.8988C60.8184 66.6324 58.9965 64.3155 57.083 61.9138L59.2853 60.1355C60.7245 61.9322 62.1911 63.6257 63.4951 65.4361C64.217 66.4399 65.0328 66.6622 66.2107 66.7561C68.1541 66.9097 69.4603 66.3322 70.5282 64.673C71.5457 63.0986 72.8565 61.7053 74.1078 60.1401Z" fill="#2E52A1"/>
<path d="M34.375 61.9185L36.5819 60.1424C38.2044 62.1683 39.7902 64.1139 41.3233 66.0893C41.4686 66.3049 41.6695 66.4771 41.9047 66.5876C42.1399 66.6982 42.4007 66.743 42.6594 66.7172C43.8052 66.6645 45.1183 67.0174 46.0602 66.5683C47.0021 66.1191 47.5773 64.9022 48.2992 64.0108C49.319 62.7503 50.3296 61.4899 51.4044 60.1401L53.625 61.9208C51.6954 64.3293 49.8185 66.7103 47.8798 69.0364C47.6254 69.3435 47.0548 69.5085 46.624 69.5222C44.8846 69.5749 43.1383 69.5933 41.4012 69.5222C40.8564 69.4869 40.3441 69.25 39.9644 68.8576C38.0829 66.6072 36.284 64.3041 34.375 61.9185Z" fill="#2E52A1"/>
<path d="M78.0197 66.7081C78.8632 66.7027 79.6893 66.948 80.3931 67.413C81.0969 67.878 81.6466 68.5417 81.9724 69.3197C82.2983 70.0978 82.3855 70.9551 82.2232 71.7829C82.0608 72.6106 81.656 73.3715 81.0604 73.9687C80.4647 74.566 79.705 74.9728 78.8777 75.1374C78.0504 75.3021 77.1928 75.2171 76.4139 74.8934C75.6349 74.5696 74.9698 74.0217 74.5029 73.3192C74.036 72.6166 73.7884 71.7912 73.7915 70.9477C73.7999 69.8278 74.2477 68.7561 75.0385 67.9631C75.8293 67.1702 76.8998 66.7195 78.0197 66.7081ZM78.0517 69.5521C77.7725 69.5516 77.4995 69.634 77.2671 69.7887C77.0347 69.9434 76.8534 70.1636 76.7461 70.4214C76.6389 70.6792 76.6104 70.9629 76.6645 71.2369C76.7185 71.5108 76.8525 71.7626 77.0496 71.9603C77.2467 72.158 77.4981 72.2929 77.7718 72.3478C78.0455 72.4027 78.3294 72.3752 78.5876 72.2688C78.8457 72.1624 79.0664 71.9818 79.2219 71.7499C79.3774 71.518 79.4607 71.2452 79.4611 70.966C79.4587 70.5925 79.3096 70.235 79.046 69.9704C78.7823 69.7059 78.4252 69.5557 78.0517 69.5521Z" fill="#2E52A1"/>
<path d="M21.2691 56.7738C22.1128 56.7688 22.9389 57.0147 23.6426 57.4803C24.3462 57.9459 24.8955 58.6101 25.2208 59.3886C25.5461 60.1671 25.6327 61.0247 25.4694 61.8525C25.3062 62.6803 24.9006 63.4409 24.3042 64.0377C23.7078 64.6344 22.9474 65.0404 22.1197 65.2041C21.292 65.3678 20.4343 65.2817 19.6556 64.9568C18.877 64.632 18.2124 64.083 17.7464 63.3796C17.2805 62.6762 17.0341 61.8502 17.0386 61.0065C17.0476 59.887 17.4961 58.816 18.2875 58.0242C19.0788 57.2324 20.1496 56.7833 21.2691 56.7738ZM21.2874 62.441C21.5666 62.442 21.8398 62.36 22.0724 62.2057C22.3051 62.0513 22.4867 61.8314 22.5944 61.5738C22.7021 61.3162 22.731 61.0325 22.6774 60.7585C22.6238 60.4845 22.4902 60.2325 22.2934 60.0344C22.0966 59.8364 21.8455 59.7011 21.5719 59.6457C21.2982 59.5904 21.0143 59.6174 20.756 59.7234C20.4977 59.8294 20.2766 60.0097 20.1208 60.2413C19.9649 60.4729 19.8812 60.7456 19.8803 61.0248C19.8838 61.3977 20.0329 61.7545 20.2958 62.0191C20.5587 62.2837 20.9145 62.4351 21.2874 62.441Z" fill="#2E52A1"/>
<path d="M44.0137 65.2827C43.1701 65.2868 42.3443 65.04 41.6412 64.5738C40.9381 64.1075 40.3895 63.4428 40.065 62.6641C39.7405 61.8854 39.6547 61.0278 39.8187 60.2002C39.9826 59.3727 40.3888 58.6125 40.9856 58.0163C41.5825 57.4201 42.3431 57.0147 43.1708 56.8517C43.9985 56.6887 44.856 56.7753 45.6344 57.1007C46.4128 57.4261 47.0769 57.9754 47.5424 58.679C48.0078 59.3826 48.2537 60.2087 48.2487 61.0523C48.238 62.1717 47.7882 63.2422 46.9961 64.0333C46.2041 64.8245 45.1332 65.2731 44.0137 65.2827ZM43.9702 59.6177C43.691 59.6227 43.4197 59.7104 43.1904 59.8696C42.9611 60.0289 42.7841 60.2526 42.6819 60.5124C42.5797 60.7722 42.5569 61.0565 42.6162 61.3293C42.6756 61.6021 42.8145 61.8511 43.0154 62.045C43.2163 62.2388 43.4702 62.3688 43.7449 62.4184C44.0197 62.4679 44.3029 62.4349 44.5589 62.3235C44.8149 62.2121 45.0321 62.0273 45.1831 61.7925C45.3341 61.5576 45.412 61.2833 45.4071 61.0041C45.3969 60.6309 45.2406 60.2766 44.9719 60.0173C44.7032 59.758 44.3436 59.6145 43.9702 59.6177Z" fill="#2E52A1"/>
<path d="M66.6874 65.2827C65.8438 65.2785 65.0204 65.0237 64.322 64.5506C63.6235 64.0775 63.0814 63.4075 62.7645 62.6256C62.4476 61.8438 62.3703 60.9854 62.5423 60.1595C62.7142 59.3336 63.1278 58.5775 63.7304 57.9871C64.3331 57.3968 65.0976 56.9989 65.9268 56.8439C66.7561 56.6889 67.6127 56.7839 68.3878 57.1168C69.163 57.4497 69.8217 58.0055 70.2803 58.7136C70.7389 59.4216 70.9768 60.25 70.9636 61.0935C70.9414 62.2127 70.481 63.2785 69.6814 64.0618C68.8818 64.8451 67.8067 65.2835 66.6874 65.2827ZM68.1197 61.0591C68.1268 60.7798 68.051 60.5046 67.9016 60.2684C67.7523 60.0322 67.5362 59.8456 67.2807 59.7323C67.0252 59.619 66.7419 59.5841 66.4665 59.632C66.1912 59.6799 65.9363 59.8084 65.7341 60.0013C65.5319 60.1942 65.3915 60.4428 65.3306 60.7156C65.2698 60.9883 65.2913 61.273 65.3924 61.5335C65.4935 61.7941 65.6697 62.0187 65.8986 62.179C66.1275 62.3394 66.3988 62.4282 66.6782 62.4341C67.0485 62.4356 67.4047 62.2929 67.6716 62.0362C67.9385 61.7796 68.0951 61.4292 68.1082 61.0591H68.1197Z" fill="#2E52A1"/>
<path d="M9.93436 66.708C10.778 66.7062 11.6031 66.9552 12.3049 67.4234C13.0067 67.8915 13.5536 68.5577 13.876 69.3373C14.1984 70.1169 14.2818 70.9747 14.1156 71.8018C13.9495 72.6289 13.5412 73.388 12.9428 73.9826C12.3443 74.5772 11.5826 74.9805 10.7544 75.1413C9.92627 75.302 9.069 75.213 8.29152 74.8856C7.51404 74.5581 6.85143 74.007 6.38785 73.3021C5.92426 72.5973 5.68064 71.7706 5.6879 70.927C5.7017 69.8076 6.15438 68.7383 6.94855 67.9493C7.74272 67.1603 8.81489 66.7145 9.93436 66.708ZM9.96644 72.3753C10.2455 72.3703 10.5168 72.2827 10.746 72.1235C10.9753 71.9644 11.1522 71.7408 11.2545 71.4812C11.3568 71.2215 11.3798 70.9373 11.3206 70.6646C11.2615 70.3919 11.1228 70.1428 10.9221 69.9488C10.7214 69.7549 10.4678 69.6247 10.1932 69.5749C9.91857 69.5251 9.63536 69.5577 9.37932 69.6688C9.12328 69.7798 8.9059 69.9643 8.75466 70.1988C8.60341 70.4334 8.52508 70.7075 8.52957 70.9866C8.54034 71.3598 8.69668 71.7141 8.96518 71.9736C9.23368 72.2331 9.59304 72.3773 9.96644 72.3753Z" fill="#2E52A1"/>
<path d="M35.4795 70.9729C35.4776 71.8165 35.225 72.6405 34.7538 73.3403C34.2826 74.0401 33.6141 74.584 32.8331 74.903C32.0521 75.222 31.194 75.3017 30.3676 75.132C29.5412 74.9622 28.784 74.5507 28.192 73.9497C27.6 73.3486 27.2 72.5852 27.0428 71.7564C26.8856 70.9275 26.9783 70.0707 27.3091 69.2946C27.6399 68.5186 28.1939 67.8583 28.9007 67.3978C29.6076 66.9373 30.4353 66.6972 31.2789 66.7081C32.3979 66.7279 33.4645 67.1856 34.2499 67.9829C35.0352 68.7803 35.4767 69.8537 35.4795 70.9729ZM31.2491 69.5521C30.9694 69.5448 30.6939 69.6209 30.4575 69.7705C30.2212 69.9202 30.0346 70.1367 29.9215 70.3925C29.8084 70.6484 29.7738 70.9321 29.8223 71.2076C29.8707 71.4832 29.9999 71.7381 30.1935 71.9401C30.3871 72.142 30.6363 72.282 30.9095 72.342C31.1827 72.4021 31.4677 72.3796 31.7281 72.2775C31.9885 72.1753 32.2128 71.9981 32.3723 71.7682C32.5318 71.5384 32.6195 71.2664 32.6241 70.9867C32.6273 70.6154 32.4853 70.2577 32.2284 69.9897C31.9715 69.7216 31.6201 69.5646 31.2491 69.5521Z" fill="#2E52A1"/>
<path d="M56.7578 75.2195C55.9142 75.2185 55.0899 74.9668 54.3896 74.4964C53.6893 74.026 53.1447 73.358 52.8248 72.5774C52.505 71.7968 52.4243 70.9387 52.5932 70.1121C52.762 69.2856 53.1727 68.5279 53.7731 67.9352C54.3735 67.3426 55.1365 66.9417 55.9652 66.7836C56.7939 66.6256 57.6508 66.7173 58.4273 67.0473C59.2037 67.3773 59.8645 67.9306 60.3258 68.6369C60.7871 69.3432 61.028 70.1707 61.018 71.0143C60.9994 72.1333 60.5429 73.2004 59.7464 73.9866C58.9499 74.7728 57.877 75.2155 56.7578 75.2195ZM56.7578 69.5522C56.4786 69.5531 56.206 69.6368 55.9743 69.7927C55.7427 69.9485 55.5625 70.1696 55.4565 70.4279C55.3504 70.6862 55.3234 70.9701 55.3788 71.2438C55.4341 71.5174 55.5694 71.7685 55.7675 71.9653C55.9655 72.1621 56.2175 72.2957 56.4915 72.3493C56.7655 72.4029 57.0493 72.374 57.3069 72.2663C57.5645 72.1586 57.7843 71.977 57.9387 71.7443C58.0931 71.5117 58.175 71.2385 58.1741 70.9593C58.1693 70.5864 58.0186 70.2302 57.7542 69.9672C57.4899 69.7042 57.133 69.5552 56.7601 69.5522H56.7578Z" fill="#2E52A1"/>
<path d="M18.7046 17.8176L21.0604 16.241C24.8371 21.9014 28.5954 27.5343 32.411 33.2566L30.0598 34.8333C26.2671 29.1591 22.5065 23.5193 18.7046 17.8176Z" fill="#2E52A1"/>
<path d="M66.9557 16.2708L69.3207 17.8337C65.5394 23.5033 61.7834 29.1362 57.9655 34.8653L55.6028 33.2955L66.9557 16.2708Z" fill="#2E52A1"/>
<path d="M35.7798 26.4023L38.0348 24.7019C39.1944 26.2488 40.2852 27.7544 41.4448 29.2027C41.7433 29.5288 42.1509 29.7343 42.5906 29.7802C43.5321 29.865 44.4793 29.865 45.4208 29.7802C45.8619 29.7337 46.27 29.5256 46.5667 29.1959C47.7262 27.7475 48.8125 26.2442 49.9652 24.7088L52.2317 26.3977C51.4044 27.5023 50.6275 28.5932 49.791 29.6542C46.9494 33.3209 48.4367 32.615 43.8327 32.6334C39.7306 32.6471 40.975 33.2109 38.4381 29.9338C37.5329 28.7879 36.6873 27.6192 35.7798 26.4023Z" fill="#2E52A1"/>
<path d="M64.4943 12.9983L66.0687 15.3541L53.3041 23.87L51.7297 21.5164L64.4943 12.9983Z" fill="#2E52A1"/>
<path d="M21.9358 15.3793L23.5125 13.0166L36.2679 21.5416L34.7072 23.9089L21.9358 15.3793Z" fill="#2E52A1"/>
<path d="M46.8302 25.5842C46.8229 26.1457 46.6489 26.6923 46.3304 27.1547C46.012 27.6172 45.5633 27.9747 45.0414 28.1818C44.5195 28.3889 43.9478 28.4364 43.3989 28.3182C42.85 28.2 42.3485 27.9214 41.9581 27.5178C41.5677 27.1142 41.306 26.6038 41.2061 26.0512C41.1062 25.4987 41.1727 24.9289 41.3971 24.4142C41.6214 23.8994 41.9936 23.4629 42.4664 23.16C42.9392 22.8571 43.4913 22.7014 44.0527 22.7127C44.799 22.7337 45.5075 23.0459 46.0266 23.5825C46.5457 24.1191 46.8341 24.8376 46.8302 25.5842Z" fill="#2E52A1"/>
</svg>
