<svg width="92" height="88" viewBox="0 0 92 88" fill="none" xmlns="http://www.w3.org/2000/svg">
<path d="M0.00956289 2.49352C0.681356 0.631151 2.04168 0 3.97338 0C12.3242 0.0502052 20.675 0.0191258 29.0258 0.0215165C31.9664 0.0215165 33.2812 1.69502 32.5712 4.54476C32.0524 6.62469 31.5193 8.69984 30.9862 10.7774C30.7136 11.8365 30.0466 12.3385 29.2433 12.1114C28.44 11.8843 28.134 11.1551 28.409 10.0697C28.9301 7.99776 29.4529 5.91943 29.9773 3.83472C30.2163 2.85452 30.1231 2.70869 29.1405 2.70869C20.671 2.70869 12.2007 2.70869 3.72953 2.70869C3.06012 2.70869 2.68239 2.82583 2.68239 3.6339C2.70152 17.2945 2.7063 30.9543 2.69673 44.6133C2.69673 44.7567 2.71825 44.9002 2.73499 45.1105C2.94143 45.0555 3.14423 44.9876 3.34223 44.9073C15.1141 39.1537 22.8394 29.9908 26.5179 17.4188C26.592 17.1606 26.6446 16.8952 26.7307 16.6418C26.9984 15.8481 27.6702 15.4297 28.3659 15.6138C29.1238 15.8122 29.5613 16.5175 29.3222 17.3686C28.9612 18.6883 28.5763 19.9984 28.1269 21.2942C25.2018 29.5933 19.9162 36.8574 12.9195 42.1939C12.733 42.3397 12.5537 42.4951 12.3337 42.672C13.7682 44.9265 15.1428 47.1952 16.6227 49.3899C21.8632 57.1693 25.368 65.6827 27.4933 74.7914C28.0384 77.1247 26.6661 78.9106 24.2634 78.913C17.524 78.913 10.7845 78.8675 4.0451 78.9464C2.1134 78.9703 0.76025 78.3727 0 76.5772L0.00956289 2.49352ZM5.33609 46.9371C4.61888 47.2789 4.0212 47.616 3.38526 47.8527C2.81149 48.0679 2.68 48.4145 2.68239 48.9979C2.70152 57.7336 2.70152 66.47 2.68239 75.2073C2.68239 75.9628 2.86887 76.2569 3.68171 76.2521C10.4498 76.2258 17.2204 76.2377 23.9885 76.2354C24.9448 76.2354 25.0213 76.1039 24.8277 75.193C22.3796 63.7175 16.759 53.7506 10.0482 44.3049C7.72921 45.3974 7.72921 45.3974 8.29342 47.8718C8.30776 47.9292 8.32928 47.9866 8.34362 48.044C8.83611 50.2219 9.33338 52.3975 9.81153 54.5802C10.0506 55.7158 9.57245 56.4808 8.58508 56.4928C7.69813 56.5143 7.34669 55.9429 7.17695 55.1659C6.58405 52.4764 5.98637 49.7772 5.33609 46.9371Z" fill="#2E52A1"/>
<path d="M61.2574 38.9137C61.2574 43.0592 61.2693 47.2023 61.2574 51.3454C61.2407 55.8256 59.1727 58.9957 55.1228 60.8916C54.976 60.9804 54.851 61.101 54.757 61.2446C54.6631 61.3882 54.6026 61.551 54.5801 61.7211C54.5203 63.0289 54.5562 64.3509 54.5538 65.6539C54.5538 67.5665 53.7649 69.0009 51.9981 69.797C51.4793 70.0361 51.52 70.3899 51.52 70.8035C51.52 75.3044 51.52 79.8062 51.52 84.3087C51.52 86.7616 50.2888 87.9952 47.8431 88C46.4421 88 45.0411 88 43.6402 88C41.4311 87.9856 40.1521 86.709 40.1449 84.4856C40.1449 79.9241 40.1306 75.3626 40.1569 70.8011C40.1849 70.5733 40.1349 70.3427 40.015 70.1469C39.8952 69.9511 39.7126 69.8017 39.497 69.7229C37.9239 68.9244 37.1422 67.5904 37.1231 65.8236C37.1087 64.5422 37.0991 63.2584 37.1231 61.977C37.1374 61.439 37.0011 61.1545 36.4513 60.9155C32.387 59.1511 30.2019 56.0145 30.1637 51.5917C30.0919 43.0663 30.0919 34.5394 30.1637 26.0109C30.221 20.0676 34.565 15.9412 40.5322 15.9316C43.9924 15.9316 47.451 15.9316 50.908 15.9316C56.9469 15.9436 61.2144 20.18 61.2454 26.2117C61.2741 30.4481 61.2574 34.6797 61.2574 38.9137ZM40.9745 18.6475C40.9745 19.7544 40.9745 20.8207 40.9745 21.8845C40.9745 22.9484 40.439 23.558 39.6214 23.558C38.8037 23.558 38.2993 22.9412 38.2921 21.8845C38.2921 20.9283 38.2921 19.9481 38.2921 18.8411C35.9731 19.5584 34.3952 20.8948 33.4652 22.9699C32.4707 25.1909 32.9704 27.5266 32.8221 29.8887H33.9482C36.303 29.8887 38.6603 29.8887 41.0175 29.8887C42.0647 29.8887 42.6432 30.4194 42.6241 31.2777C42.605 32.136 42.0575 32.5687 41.0391 32.5735C38.6483 32.5735 36.2576 32.5735 33.8812 32.5735H32.8939V35.9731H33.9051C36.2959 35.9731 38.6866 35.9731 41.0773 35.9731C42.0671 35.9731 42.6313 36.499 42.6384 37.3167C42.6456 38.1343 42.0958 38.6459 41.0916 38.6578C39.3632 38.6746 37.6323 38.6578 35.9014 38.6578H32.913V41.969C32.9898 42.0022 33.07 42.027 33.1521 42.0431C35.7484 42.0431 38.3423 42.0431 40.9363 42.0622C42.0623 42.0622 42.6456 42.5739 42.6098 43.4656C42.5811 44.3119 42.0288 44.7375 40.9147 44.7398C38.5599 44.7398 36.2026 44.7398 33.8454 44.7398C33.5322 44.7398 33.219 44.7685 32.8891 44.7853V48.1538H33.9147C36.2122 48.1538 38.5073 48.1538 40.8048 48.1538C42.0264 48.1538 42.6193 48.6128 42.6121 49.5165C42.605 50.4202 42.036 50.8314 40.7761 50.8338C38.7487 50.8338 36.7206 50.8338 34.6917 50.8338H32.956C32.3416 54.1808 34.7754 57.7478 38.1941 58.6347C38.865 58.7688 39.5425 58.8677 40.2238 58.9312C40.941 59.0388 41.369 59.4524 41.4048 60.1743C41.4407 60.8963 41.0797 61.3362 40.384 61.5586C40.1593 61.6303 39.8365 61.8837 39.8317 62.0606C39.7935 63.3994 39.7791 64.7454 39.8509 66.0818C39.8987 66.9281 40.4844 67.4206 41.3546 67.4254C44.3359 67.4469 47.3195 67.4398 50.3031 67.4254C51.0442 67.4254 51.6825 67.0501 51.7375 66.3305C51.8379 64.7765 51.7686 63.2225 51.7686 61.5825C50.1621 61.5825 48.6153 61.5968 47.0685 61.5825C46.1409 61.5705 45.5575 61.0709 45.5169 60.3178C45.4762 59.5647 46.0835 58.936 47.0278 58.9144C48.6081 58.8786 50.1907 58.9144 51.7686 58.8595C54.0613 58.7614 55.8735 57.7 57.2123 55.8639C58.2864 54.4256 58.748 52.6207 58.4961 50.8434H57.4729C55.0822 50.8434 52.6914 50.8434 50.3151 50.8434C49.3588 50.8434 48.8304 50.3652 48.8065 49.5595C48.7826 48.7539 49.342 48.216 50.3198 48.1681C50.5278 48.1681 50.7382 48.1681 50.9462 48.1681C53.152 48.1681 55.3587 48.1681 57.5661 48.1681C57.8817 48.1681 58.1949 48.1418 58.5105 48.1275V44.7709H50.8601C49.3827 44.7709 48.7778 44.3717 48.7969 43.413C48.8161 42.4543 49.4496 42.0885 50.9175 42.0885C53.125 42.0885 55.3324 42.0885 57.5398 42.0885H58.4961V38.6865H57.4801C55.1539 38.6865 52.8277 38.6865 50.5015 38.6865C49.3612 38.6865 48.7754 38.2084 48.7874 37.331C48.7993 36.4536 49.4138 35.9994 50.5446 35.9946C52.7225 35.9946 54.8981 35.9946 57.076 35.9946H58.5105V32.5902H57.504C55.1132 32.5902 52.7225 32.5902 50.3461 32.5902C49.3516 32.5902 48.7946 32.081 48.7969 31.2538C48.7993 30.4266 49.3779 29.9198 50.3605 29.9078C51.9694 29.8887 53.5808 29.9078 55.1921 29.9078H58.5391C58.5391 28.3825 58.5702 26.9577 58.5391 25.5352C58.4842 23.5557 57.6617 21.9061 56.2297 20.5649C55.3793 19.7354 54.3105 19.1649 53.1481 18.92C53.1481 19.9672 53.1481 20.9187 53.1481 21.8726C53.1481 22.9197 52.6508 23.5461 51.8356 23.5676C50.9845 23.5915 50.4705 22.9556 50.4657 21.8511C50.4657 20.7896 50.4657 19.7305 50.4657 18.6786H47.0661C47.0661 19.7664 47.0661 20.8039 47.0661 21.8415C47.0661 22.9388 46.5353 23.5843 45.689 23.5676C44.8427 23.5509 44.3885 22.9365 44.3813 21.8798C44.3741 20.8231 44.3813 19.7544 44.3813 18.669L40.9745 18.6475ZM42.9182 70.2034C42.8821 70.3156 42.8565 70.4308 42.8417 70.5477C42.8417 75.1953 42.8369 79.8436 42.8273 84.4928C42.8273 85.1215 43.1262 85.3224 43.7119 85.3128C45.0531 85.2937 46.3967 85.265 47.7355 85.3128C48.6153 85.3511 48.8567 85.0092 48.8495 84.1652C48.8161 79.7854 48.8352 75.4032 48.8328 71.0163C48.8328 70.7557 48.8017 70.4951 48.7826 70.1867L42.9182 70.2034Z" fill="#2E52A1"/>
<path d="M86.1116 46.8247C85.4756 49.6697 84.8708 52.4023 84.254 55.1301C84.0149 56.225 83.3814 56.6936 82.5303 56.4593C81.7294 56.2394 81.3923 55.6656 81.5979 54.7236C82.1956 51.96 82.7932 49.1939 83.4579 46.447C83.6419 45.6939 83.5105 45.2827 82.8148 44.9767C82.396 44.7634 81.9912 44.5238 81.6027 44.2595C81.5262 44.3073 81.4616 44.3264 81.4353 44.3694C78.2126 49.5167 74.672 54.475 72.0541 59.9856C71.576 60.9921 70.952 61.2599 70.1415 60.8774C69.3311 60.4949 69.1637 59.7992 69.6514 58.7616C71.9704 53.8367 75.0784 49.3804 77.9568 44.7878C78.3848 44.1088 78.8175 43.4299 79.2932 42.6792C78.576 42.0982 77.8588 41.5316 77.1703 40.9459C69.52 34.491 64.564 26.3625 62.1278 16.6705C61.0903 12.5425 60.0503 8.41456 59.0079 4.28658C58.3887 1.79784 59.7778 0.0263165 62.3478 0.0239258C70.9353 0.0239258 79.5235 0.0239258 88.1126 0.0239258C90.379 0.0239258 91.6341 1.29579 91.6341 3.5861V75.3341C91.6341 77.7104 90.4388 78.9202 88.0672 78.9202H67.4926C64.9106 78.9202 63.5121 77.1438 64.2006 74.6647C65.0644 71.5679 65.9705 68.4846 66.9188 65.415C67.0758 64.9474 67.412 64.5612 67.8536 64.3415C68.2027 64.2029 68.9127 64.3415 69.1183 64.6212C69.2697 64.8395 69.376 65.0858 69.431 65.3456C69.486 65.6055 69.4886 65.8737 69.4387 66.1346C68.6402 69.0943 67.7413 72.0253 66.8973 74.9802C66.5507 76.1899 66.6104 76.2449 67.8656 76.2473C74.5166 76.2473 81.1652 76.2306 87.8162 76.2664C88.7342 76.2664 88.9685 75.9867 88.9661 75.095C88.9374 66.4167 88.9374 57.7392 88.9661 49.0624C88.9661 48.3835 88.7605 48.0368 88.1532 47.7977C87.4934 47.53 86.8646 47.1857 86.1116 46.8247ZM88.9111 45.1512C88.9302 44.8595 88.947 44.7113 88.947 44.5655C88.947 30.9352 88.9525 17.3081 88.9637 3.68412C88.9637 2.85215 88.617 2.68958 87.8903 2.69197C79.443 2.70632 71.003 2.70632 62.5701 2.69197C61.5206 2.69197 61.4202 2.83063 61.676 3.84191C62.6586 7.73879 63.6722 11.6285 64.6214 15.5325C67.1699 26.0278 72.7235 34.5149 81.4736 40.8742C83.797 42.5584 86.2896 43.9958 88.9111 45.1632V45.1512Z" fill="#2E52A1"/>
</svg>
