<svg width="86" height="88" viewBox="0 0 86 88" fill="none" xmlns="http://www.w3.org/2000/svg">
<path d="M63.9055 87.8281C58.8455 86.1781 53.7672 84.5808 48.7279 82.8666C41.9675 80.575 37.3429 75.9917 34.7877 69.3459C34.0338 67.3773 33.3348 65.3882 32.6175 63.4059C32.2463 62.3861 32.464 61.7032 33.2363 61.3961C34.0086 61.089 34.6365 61.4763 35.0146 62.4938C35.796 64.6044 36.5225 66.738 37.3521 68.828C39.6437 74.5777 43.7481 78.4529 49.5849 80.4627C53.7099 81.8881 57.8349 83.2608 61.9736 84.6564C66.4355 86.162 70.3451 84.7504 72.7971 80.7423C75.0262 77.0909 77.2514 73.4372 79.4727 69.7813C82.9072 64.1285 83.4946 58.1947 81.235 51.9797C78.9205 45.6364 76.6128 39.2908 74.3119 32.9429C72.9049 29.086 69.6163 27.5736 65.7434 28.9829C64.1095 29.5788 62.4801 30.1837 60.8462 30.7727C59.8584 31.1302 59.132 30.8781 58.8524 30.1035C58.5728 29.329 58.9876 28.7285 59.9982 28.3504C61.6268 27.75 63.2585 27.1504 64.8932 26.5515C70.0174 24.6769 74.8276 26.8906 76.6998 32.0125C78.6752 37.4185 80.6667 42.8177 82.5825 48.2466C83.4144 50.6047 84.2898 52.9812 84.7665 55.4218C85.8321 60.8851 84.7023 66.0276 81.8538 70.7759C79.5392 74.6427 77.1956 78.4911 74.823 82.3212C72.9667 85.3302 70.2969 87.1566 66.7747 87.6952C66.6667 87.7252 66.5628 87.7683 66.4653 87.8235L63.9055 87.8281Z" fill="#2E52A1"/>
<path d="M66.5088 88H63.8505C62.2922 87.4912 60.7323 86.9863 59.1709 86.4852C55.7334 85.3738 52.1607 84.2233 48.6728 83.0363C41.9422 80.7446 37.2146 76.1613 34.6296 69.4147C34.0635 67.9388 33.5204 66.4355 32.9956 64.9688L32.4548 63.4701C31.946 62.0676 32.5648 61.4855 33.1721 61.2449C33.3369 61.173 33.5148 61.1358 33.6946 61.1358C33.8744 61.1358 34.0523 61.173 34.2171 61.2449C34.6227 61.4259 34.9458 61.8339 35.175 62.4526C35.4454 63.1836 35.7089 63.9147 35.9725 64.648C36.4629 66.0093 36.9694 67.4186 37.5102 68.7844C39.7537 74.4311 43.8352 78.3132 49.6399 80.3184C52.5435 81.3244 55.5066 82.319 58.3711 83.2815L62.0378 84.5121C66.3919 85.9833 70.2671 84.5831 72.6596 80.6713C74.8802 77.0367 77.1261 73.3494 79.3352 69.7126C82.7314 64.1209 83.3204 58.181 81.0837 52.0668C79.8921 48.8035 78.7042 45.5379 77.5202 42.27C76.4019 39.19 75.282 36.11 74.1606 33.03C72.7857 29.274 69.5888 27.7959 65.8099 29.1732C65.1315 29.4191 64.4532 29.6674 63.7749 29.918C62.8215 30.2663 61.8682 30.6169 60.9126 30.9629C59.8424 31.3479 59.0151 31.0592 58.7011 30.1884C58.3872 29.3175 58.8501 28.6232 59.957 28.2175L60.594 27.9884L64.8542 26.3888C67.414 25.4515 69.9211 25.4905 72.1073 26.5011C74.2936 27.5117 75.9459 29.3955 76.8808 31.9507L77.809 34.4898C79.4521 38.9723 81.1479 43.6083 82.7635 48.187L82.9698 48.7714C83.7306 50.9164 84.5166 53.1256 84.9566 55.3874C85.9879 60.6857 85.0025 65.8947 82.0233 70.8676C79.9608 74.305 77.7333 77.9717 74.9902 82.4152C73.0905 85.4975 70.3405 87.3331 66.8205 87.8694C66.7642 87.8831 66.7102 87.9047 66.6601 87.9335L66.5546 87.9862L66.5088 88ZM63.9376 87.6562H66.4423L66.4974 87.6287C66.579 87.5813 66.6681 87.548 66.7609 87.5302C70.1778 87.0077 72.8452 85.2271 74.69 82.2365C77.44 77.7884 79.6675 74.1194 81.7208 70.6911C84.6564 65.7938 85.6281 60.6651 84.6129 55.4539C84.1775 53.2264 83.396 51.0195 82.6398 48.886L82.4335 48.2993C80.8179 43.716 79.1221 39.0915 77.4813 34.609L76.5417 32.0698C75.6411 29.6017 74.0507 27.7844 71.9584 26.8128C69.8661 25.8411 67.4369 25.8067 64.9642 26.7119L60.7086 28.2748L60.0693 28.504C59.423 28.7332 58.7149 29.1915 59.0174 30.0371C59.3543 30.9675 60.2732 30.7934 60.7911 30.6054C61.746 30.2602 62.7001 29.9118 63.6534 29.5605L65.6884 28.8157C69.6667 27.3673 73.0354 28.9234 74.4769 32.8765C75.6013 35.9565 76.722 39.0372 77.8388 42.1187C79.0228 45.3851 80.2106 48.65 81.4023 51.9133C83.6756 58.142 83.0775 64.1805 79.624 69.8638C77.4148 73.503 75.1667 77.1971 72.9461 80.8248C70.4642 84.8856 66.4469 86.3385 61.9232 84.8123C60.701 84.3998 59.4788 83.9896 58.2566 83.5817C55.392 82.6192 52.4289 81.6223 49.523 80.6186C43.6197 78.5767 39.4696 74.6305 37.1871 68.8853C36.6439 67.5103 36.1352 66.1032 35.6448 64.7397C35.3805 64.0063 35.1154 63.2753 34.8496 62.5466C34.6548 62.0241 34.3912 61.6734 34.0727 61.5336C33.9486 61.4831 33.8154 61.4584 33.6815 61.4612C33.5475 61.4639 33.4155 61.494 33.2935 61.5497C32.606 61.8224 32.4365 62.4091 32.7733 63.3395L33.3142 64.8382C33.8367 66.298 34.3798 67.8059 34.9435 69.2772C37.4941 75.923 42.1485 80.4421 48.7783 82.6994C52.2639 83.8842 55.8251 85.0346 59.2718 86.1369L63.9376 87.6562Z" fill="#2E52A1"/>
<path d="M0.17238 33.8597C0.15374 30.9961 0.651343 28.1525 1.64133 25.4654C3.96813 19.0977 6.28728 12.7261 8.5988 6.35069C10.4803 1.19217 15.1942 -1.04219 20.3596 0.825506C30.9669 4.66479 41.5704 8.52089 52.1701 12.3938C57.324 14.2798 59.5034 19.0236 57.6151 24.1889C55.2707 30.64 52.9515 37.1047 50.5613 43.5397C48.0634 50.2588 43.3816 54.8055 36.612 57.1659C32.471 58.6096 28.3071 59.9984 24.1454 61.3848C18.5263 63.2548 13.3746 61.3527 10.2923 56.2928C8.0511 52.6261 5.82131 48.932 3.5732 45.2607C1.32508 41.5895 0.193005 37.6822 0.17238 33.8597ZM2.74362 33.9927C2.75966 37.1735 3.7657 40.6385 5.70673 43.8216C7.99839 47.5982 10.2977 51.371 12.6046 55.1401C14.9879 59.0153 18.9135 60.4269 23.2356 58.9786C27.3392 57.6036 31.4405 56.2179 35.5395 54.8215C41.7797 52.7109 46.0147 48.5424 48.272 42.3664C50.6003 36.0001 52.9141 29.6293 55.2134 23.254C55.439 22.6705 55.5929 22.0618 55.6717 21.4412C55.988 18.2581 54.3769 15.9413 51.054 14.7198C40.546 10.8882 30.0296 7.06187 19.5048 3.24091C15.6961 1.86592 12.4007 3.39904 11.0257 7.21694C8.6897 13.6107 6.35909 20.0067 4.03382 26.405C3.14759 28.835 2.71268 31.4064 2.75049 33.9927H2.74362Z" fill="#2E52A1"/>
<path d="M20.0066 62.2579C16.0054 62.2579 12.4808 60.2114 10.1525 56.382C9.30915 54.9979 8.46888 53.613 7.63166 52.2273C6.23681 49.9356 4.8389 47.644 3.43793 45.3523C1.20586 41.7223 0.0210693 37.7509 0.000444386 33.8619C-0.0170893 30.978 0.484368 28.1144 1.48085 25.408C2.8039 21.7841 4.12314 18.1603 5.43855 14.5364C6.43771 11.7864 7.43763 9.03641 8.43832 6.28642C10.3564 1.02707 15.1712 -1.2348 20.4168 0.664987C31.2907 4.59747 41.9928 8.491 52.2273 12.2333C57.4637 14.1468 59.6935 18.9753 57.7777 24.2461C57.1284 26.0321 56.4806 27.8173 55.8344 29.6017C54.1729 34.1851 52.4519 38.9425 50.7217 43.5992C48.2192 50.3298 43.4915 54.9498 36.6692 57.3285C32.4411 58.802 28.0618 60.2618 24.198 61.5474C22.8482 62.0079 21.4329 62.2478 20.0066 62.2579ZM0.344193 33.8596C0.364818 37.6867 1.53356 41.5963 3.7198 45.169C5.1223 47.4606 6.52021 49.7523 7.91354 52.0439C8.75534 53.4281 9.59561 54.8123 10.4344 56.1964C13.4685 61.1739 18.572 63.0508 24.0858 61.2151C27.9472 59.9295 32.3243 58.4652 36.5524 56.9962C43.2738 54.6541 47.9304 50.1029 50.394 43.4754C52.1242 38.8211 53.8452 34.0796 55.5067 29.4803L57.45 24.1247C59.2971 19.0464 57.1498 14.3943 52.1058 12.5495C41.8759 8.81183 31.167 4.92059 20.2999 0.988111C15.2583 -0.845215 10.6085 1.33873 8.76145 6.41017C7.76076 9.16016 6.76083 11.9101 5.76167 14.6601C4.44473 18.2794 3.12474 21.9002 1.80169 25.5226C0.820923 28.192 0.327264 31.0158 0.344193 33.8596ZM20.0204 59.7004C16.9518 59.7004 14.25 58.1443 12.4579 55.2316C10.5787 52.1746 8.68353 49.0579 6.8525 46.0444L5.55771 43.9108C3.64647 40.769 2.57856 37.2467 2.57856 33.9948C2.54035 31.3904 2.97917 28.8009 3.87334 26.3545C5.03903 23.1461 6.2032 19.9455 7.36583 16.7524C8.52846 13.5594 9.69186 10.361 10.856 7.15725C12.2723 3.26143 15.6914 1.67332 19.5643 3.08039C30.0861 6.89982 40.6055 10.7254 51.1227 14.557C54.5419 15.8014 56.1644 18.1893 55.8504 21.4595C55.768 22.0937 55.6087 22.7154 55.376 23.3111C52.7086 30.7086 50.4971 36.7769 48.4323 42.4258C46.1613 48.6454 41.8415 52.8712 35.599 54.9841L33.5365 55.6716C30.1793 56.8175 26.7074 57.9839 23.2906 59.1297C22.2387 59.4962 21.1342 59.6889 20.0204 59.7004ZM2.91543 33.9926C2.93147 37.1848 3.97418 40.6384 5.85334 43.7344L7.14812 45.8656C8.98145 48.8792 10.8744 51.9958 12.7512 55.0506C15.1048 58.8777 18.9066 60.2504 23.1806 58.8158C26.5974 57.6699 30.0693 56.4943 33.4266 55.3577L35.489 54.6702C41.633 52.5893 45.8794 48.4323 48.1161 42.3158C50.1786 36.6692 52.3854 30.594 55.0575 23.2034C55.2805 22.6342 55.4343 22.0402 55.5158 21.4343C55.8252 18.3382 54.2669 16.0741 51.0127 14.8893C40.4894 11.0531 29.9677 7.22371 19.4474 3.40123C15.712 2.04456 12.545 3.52956 11.1791 7.27642C10.0135 10.474 8.8493 13.6717 7.68666 16.8693C6.52403 20.0669 5.36063 23.2653 4.19647 26.4645C3.31328 28.8745 2.8791 31.426 2.91543 33.9926Z" fill="#2E52A1"/>
<path d="M51.0425 71.9584C51.0461 69.2188 51.9538 66.5569 53.6246 64.3858C55.2955 62.2147 57.6361 60.6556 60.2834 59.9505C62.9308 59.2454 65.7368 59.4336 68.2662 60.486C70.7957 61.5384 72.9071 63.3961 74.273 65.7709C74.619 66.3759 74.9605 66.9878 74.5022 67.6776C74.0668 68.3307 73.4068 68.2322 72.733 68.2001C65.677 67.8747 59.5124 70.0816 54.2371 74.7749C54.0881 74.9078 53.9781 75.1094 53.8062 75.1874C53.3181 75.4165 52.8002 75.7626 52.3098 75.7397C51.6223 75.7076 51.3931 75.0522 51.2923 74.4288C51.2166 74.0095 51.1433 73.5878 51.0975 73.1615C51.0516 72.7353 51.0631 72.3595 51.0425 71.9584ZM53.7214 71.7568C58.6177 67.8995 64.6215 65.7132 70.8516 65.5189C68.6699 62.471 63.8322 61.2908 59.9479 62.7689C55.6006 64.3959 53.4946 68.7936 53.7214 71.759V71.7568Z" fill="#2E52A1"/>
<path d="M52.3625 75.9045H52.3075C51.3794 75.861 51.1915 74.8023 51.1296 74.4539V74.4264C51.0586 74.0185 50.983 73.5968 50.9394 73.1752C50.9096 72.8956 50.9005 72.6091 50.8913 72.3341C50.8913 72.2127 50.8913 72.0912 50.8752 71.9698C50.8768 69.1923 51.795 66.4929 53.4872 64.2905C55.1795 62.0881 57.5513 60.5057 60.2347 59.7888C62.9181 59.0719 65.7631 59.2606 68.3283 60.3257C70.8935 61.3907 73.0355 63.2725 74.422 65.6792C74.7749 66.2956 75.1714 66.99 74.6512 67.7669C74.1929 68.4544 73.5397 68.4108 72.9004 68.3742H72.7308C65.7733 68.0533 59.5881 70.2487 54.3563 74.9054C54.3071 74.9518 54.2611 75.0016 54.2188 75.0543C54.1291 75.1739 54.0151 75.2731 53.8842 75.3454C53.7696 75.3981 53.655 75.4577 53.5359 75.5173C53.1797 75.7347 52.7782 75.8672 52.3625 75.9045ZM51.2167 71.956C51.2167 72.0775 51.2167 72.1989 51.2305 72.3204C51.2305 72.5908 51.2488 72.8681 51.2786 73.1362C51.3198 73.5464 51.3932 73.9635 51.4665 74.3646V74.3921C51.6063 75.1781 51.8698 75.5379 52.3213 75.5608C52.6976 75.5259 53.0604 75.4026 53.38 75.201C53.5015 75.1391 53.6229 75.0773 53.7398 75.0246C53.829 74.9735 53.907 74.9049 53.969 74.8229C54.0213 74.7587 54.0779 74.6982 54.1386 74.6418C59.4415 69.9233 65.7046 67.6935 72.7583 68.0212H72.9324C73.5214 68.0533 74.0324 68.0831 74.3762 67.5629C74.7772 66.9625 74.4793 66.4423 74.1356 65.8419C72.7901 63.4965 70.7078 61.6611 68.2121 60.6209C65.7163 59.5807 62.9469 59.3938 60.334 60.0893C57.7211 60.7849 55.4111 62.3239 53.7628 64.4673C52.1146 66.6107 51.2203 69.2384 51.219 71.9423L51.2167 71.956ZM53.5771 72.0889L53.5519 71.7704C53.3044 68.5346 55.6144 64.2194 59.8906 62.6038C63.8987 61.0867 68.7754 62.3242 70.9937 65.4225L71.177 65.6815H70.8608C64.6688 65.8877 58.7033 68.0606 53.8292 71.885L53.5771 72.0889ZM63.5046 62.2967C62.3122 62.293 61.129 62.5049 60.0121 62.9223C56.02 64.4302 53.8109 68.3535 53.8796 71.4221C58.6747 67.7442 64.4843 65.629 70.5216 65.3629C68.9793 63.4081 66.2706 62.2967 63.5023 62.2967H63.5046Z" fill="#2E52A1"/>
<path d="M65.567 41.9377C67.2858 42.293 69.0183 42.5909 70.7187 43.0217C71.6903 43.2692 72.0341 43.9773 71.7797 44.7519C71.5253 45.5265 70.8424 45.7534 69.8685 45.4256C66.6051 44.3279 63.3625 44.6007 60.1312 45.57C59.886 45.6434 59.65 45.7488 59.4048 45.8175C58.5316 46.065 57.8006 45.7396 57.5966 45.0154C57.3927 44.2913 57.7616 43.6725 58.5866 43.3792C60.8437 42.6076 63.1889 42.1234 65.567 41.9377Z" fill="#2E52A1"/>
<path d="M58.8409 46.0628C58.5264 46.0814 58.215 45.9914 57.9588 45.8078C57.7027 45.6243 57.5173 45.3583 57.4339 45.0544C57.2047 44.2546 57.6287 43.5305 58.527 43.2097C60.7944 42.431 63.1515 41.9435 65.5417 41.759H65.567H65.5922C66.0994 41.8614 66.6074 41.9622 67.1161 42.0615C68.3124 42.2907 69.5476 42.5405 70.7507 42.8453C70.9791 42.8891 71.1957 42.9803 71.3868 43.1129C71.5778 43.2455 71.7389 43.4166 71.8598 43.6153C71.9547 43.7957 72.0102 43.9941 72.0229 44.1975C72.0355 44.4009 72.005 44.6047 71.9332 44.7955C71.8848 44.9639 71.8025 45.1207 71.6914 45.2563C71.5802 45.3919 71.4426 45.5033 71.2869 45.5838C70.9019 45.7763 70.3886 45.774 69.8042 45.5838C66.9053 44.6076 63.7543 44.6557 60.1793 45.7305C60.0693 45.7648 59.9501 45.8038 59.847 45.8451C59.7439 45.8863 59.588 45.939 59.4505 45.978C59.2521 46.0338 59.047 46.0623 58.8409 46.0628ZM65.5578 42.1028C63.2014 42.2872 60.8781 42.7708 58.6439 43.5419C57.9174 43.8009 57.5805 44.3463 57.7616 44.9674C57.9426 45.5884 58.5751 45.884 59.3657 45.6549C59.4918 45.6182 59.6155 45.5746 59.7393 45.5288C59.863 45.483 59.9684 45.444 60.0899 45.4096C63.7428 44.3119 66.9649 44.2638 69.9303 45.2653C70.4276 45.4326 70.8469 45.4417 71.1517 45.2905C71.2668 45.2299 71.3682 45.1463 71.4498 45.045C71.5314 44.9438 71.5914 44.8269 71.6261 44.7015C71.6832 44.554 71.7085 44.396 71.7002 44.238C71.6919 44.08 71.6502 43.9256 71.578 43.7849C71.479 43.6278 71.3485 43.4931 71.1946 43.3894C71.0407 43.2856 70.8669 43.215 70.6842 43.1822C69.4926 42.8797 68.2597 42.6367 67.068 42.403L65.5578 42.1028Z" fill="#2E52A1"/>
<path d="M52.4586 53.1073C52.3143 57.6631 47.1535 61.206 42.8749 59.6843C42.0591 59.3933 41.6535 58.7562 41.8437 58.0641C42.0499 57.3262 42.7604 56.9389 43.6289 57.2277C46.6562 58.2314 49.9332 55.5891 49.9149 52.8231C49.9149 51.9064 50.5451 51.3633 51.2899 51.4252C52.0828 51.4894 52.4907 52.0806 52.4586 53.1073Z" fill="#2E52A1"/>
<path d="M44.9764 60.2091C44.2413 60.2122 43.5111 60.0889 42.8177 59.8447C41.9216 59.5262 41.4656 58.7928 41.6718 58.0114C41.7199 57.8242 41.8057 57.6488 41.9239 57.4959C42.0421 57.343 42.1903 57.2159 42.3593 57.1222C42.5628 57.023 42.7843 56.9661 43.0105 56.955C43.2366 56.944 43.4626 56.9791 43.6748 57.0581C45.0177 57.5026 46.5141 57.2322 47.7768 56.3133C48.9914 55.4287 49.7431 54.0881 49.7339 52.8162C49.7248 52.5928 49.7625 52.3699 49.8446 52.162C49.9267 51.954 50.0513 51.7655 50.2106 51.6085C50.3566 51.4746 50.5293 51.3732 50.7173 51.3108C50.9052 51.2484 51.1043 51.2264 51.3014 51.2464C52.1883 51.3197 52.6581 51.9797 52.6214 53.1072C52.5503 55.3072 51.3037 57.4453 49.287 58.8226C48.021 59.7051 46.5195 60.188 44.9764 60.2091ZM43.0675 57.3033C42.8809 57.3018 42.6969 57.3458 42.5312 57.4316C42.4012 57.5034 42.2878 57.6017 42.1981 57.7201C42.1085 57.8386 42.0448 57.9745 42.011 58.1191C41.8437 58.7195 42.2058 59.2649 42.9277 59.5307C44.8779 60.2182 47.1856 59.8585 49.0968 58.5545C51.0081 57.2506 52.2158 55.2041 52.2822 53.1118H52.4541H52.2822C52.3028 52.4633 52.147 51.6772 51.2785 51.6039C51.1288 51.5888 50.9776 51.6052 50.8347 51.6522C50.6918 51.6992 50.5604 51.7756 50.4489 51.8766C50.3242 52.0008 50.227 52.1499 50.1639 52.3142C50.1007 52.4784 50.0729 52.6542 50.0822 52.8299C50.0822 54.2049 49.287 55.6579 47.9831 56.6066C46.6287 57.592 45.02 57.8808 43.5716 57.4018C43.41 57.3421 43.2397 57.3088 43.0675 57.3033Z" fill="#2E52A1"/>
<path d="M65.2484 52.6672C63.069 52.6122 61.238 51.9659 59.7943 50.4053C59.132 49.688 59.0815 48.8997 59.6522 48.3726C60.2228 47.8455 60.947 47.9487 61.6138 48.6018C62.1219 49.1252 62.7399 49.5292 63.4232 49.7845C64.1065 50.0398 64.8381 50.14 65.5649 50.078C66.2917 50.0159 66.9956 49.7931 67.6257 49.4256C68.2558 49.0582 68.7964 48.5552 69.2084 47.9533C69.7561 47.1856 70.4482 46.977 71.0944 47.3826C71.7407 47.7883 71.8621 48.5903 71.3236 49.4085C69.8592 51.6176 67.7165 52.548 65.2484 52.6672Z" fill="#2E52A1"/>
<path d="M65.2508 52.8391C62.8858 52.7795 61.0616 52.021 59.6752 50.5222C59.3517 50.2027 59.1471 49.7823 59.0954 49.3306C59.0825 49.1267 59.1173 48.9227 59.1968 48.7346C59.2764 48.5465 59.3985 48.3794 59.5537 48.2466C60.1747 47.6714 61.0181 47.7608 61.7491 48.4758C62.2394 48.9817 62.8361 49.3722 63.4959 49.619C64.1558 49.8658 64.8623 49.9628 65.5642 49.9029C66.2662 49.843 66.946 49.6278 67.5545 49.2727C68.163 48.9177 68.6849 48.4318 69.0824 47.8502C69.6828 47.0091 70.4757 46.7777 71.1999 47.2337C71.3568 47.3268 71.4928 47.4511 71.5997 47.5989C71.7065 47.7467 71.7818 47.9149 71.8209 48.0931C71.8622 48.3382 71.8532 48.5891 71.7945 48.8306C71.7358 49.072 71.6287 49.2991 71.4795 49.4979C70.1045 51.5787 68.0191 52.7062 65.276 52.8345L65.2508 52.8391ZM60.4543 48.2145C60.1745 48.2247 59.91 48.3451 59.7186 48.5494C59.5271 48.7537 59.4242 49.0255 59.4323 49.3054C59.4777 49.6788 59.6491 50.0255 59.9181 50.2885C61.2404 51.7162 62.982 52.4381 65.2462 52.4954C67.8701 52.367 69.8639 51.2968 71.1724 49.3145C71.2943 49.1522 71.3829 48.9675 71.4333 48.7709C71.4836 48.5742 71.4947 48.3696 71.4657 48.1687C71.4347 48.0356 71.377 47.9102 71.2963 47.8C71.2156 47.6897 71.1134 47.5969 70.9959 47.527C70.2282 47.0458 69.621 47.6508 69.3414 48.0541C68.9145 48.6721 68.357 49.1886 67.7083 49.5672C67.0596 49.9458 66.3357 50.1772 65.5876 50.2449C64.8357 50.3032 64.0802 50.1976 63.3731 49.9352C62.666 49.6729 62.0244 49.2602 61.4924 48.7256C61.2267 48.4258 60.854 48.2423 60.4543 48.2145Z" fill="#2E52A1"/>
<path d="M25.3026 49.4177C23.4571 49.4195 21.6341 49.0126 19.9646 48.2261C18.295 47.4396 16.8204 46.2931 15.6467 44.8689C14.473 43.4447 13.6293 41.7783 13.1762 39.9893C12.7231 38.2002 12.6719 36.3331 13.0262 34.5219C13.1454 33.9077 13.3333 33.2409 14.0231 33.2042C14.5666 33.1948 15.095 33.3829 15.5104 33.7336C20.827 38.6927 27.113 40.9981 34.3615 40.7346C34.5036 40.7346 34.6457 40.7346 34.7878 40.7094C35.3905 40.6429 36.039 40.6956 36.2453 41.3121C36.3993 41.8072 36.365 42.3417 36.149 42.8131C34.3157 46.2231 31.4603 48.3131 27.6699 49.1289C26.8976 49.2825 26.0932 49.3214 25.3026 49.4177ZM15.4599 37.1504C15.1483 40.9546 18.2099 45.0589 22.2318 46.3423C26.4737 47.7012 30.8576 45.8266 32.5442 43.3631C26.1987 43.1271 20.5428 41.0669 15.4599 37.1504Z" fill="#2E52A1"/>
<path d="M25.3141 49.5895C23.4412 49.5931 21.5909 49.1815 19.8962 48.3842C18.2015 47.5869 16.7046 46.4239 15.5133 44.9788C14.3219 43.5336 13.4658 41.8424 13.0064 40.0267C12.5471 38.2111 12.4959 36.3162 12.8567 34.4784C12.9529 33.9857 13.134 33.069 14.0025 33.0209C14.5898 33.0107 15.1606 33.2162 15.6067 33.5984C20.8545 38.475 27.1589 40.8125 34.3547 40.5627C34.4945 40.5627 34.632 40.5627 34.7695 40.5375C35.1041 40.5031 36.117 40.3931 36.4057 41.2571C36.5775 41.7971 36.5399 42.382 36.3003 42.8956C34.4555 46.3331 31.5635 48.4781 27.7089 49.2962C27.1672 49.4018 26.6202 49.4783 26.0704 49.5254C25.8206 49.5483 25.5731 49.5735 25.3233 49.6056L25.3141 49.5895ZM14.1033 33.3623H14.0323C13.5212 33.3898 13.3448 33.8344 13.1935 34.5425C12.8434 36.3289 12.8931 38.1706 13.3391 39.9355C13.7851 41.7004 14.6162 43.3446 15.773 44.7502C16.9297 46.1558 18.3833 47.2879 20.0293 48.0652C21.6754 48.8424 23.4731 49.2456 25.2935 49.2458C25.541 49.2137 25.7885 49.1885 26.036 49.1656C26.5746 49.1192 27.1101 49.0427 27.6401 48.9364C31.3916 48.1412 34.2057 46.0444 36.0001 42.71C36.197 42.2778 36.2272 41.7881 36.0849 41.335C35.9451 40.9202 35.5509 40.769 34.8084 40.8492C34.6641 40.8652 34.5197 40.8721 34.3707 40.8767C27.0741 41.1379 20.6941 38.7706 15.3935 33.8298C15.0294 33.5313 14.5742 33.3663 14.1033 33.3623ZM25.1491 46.9656C24.1383 46.9683 23.1332 46.8137 22.17 46.5073C18.045 45.1896 14.9627 40.9867 15.2789 37.1367L15.3042 36.8227L15.5539 37.0152C20.6414 40.934 26.1964 42.9575 32.5397 43.2027L32.8491 43.2142L32.6749 43.4708C31.3549 45.4073 28.3872 46.9656 25.1491 46.9656ZM15.6112 37.4827C15.4989 41.0944 18.4254 44.9444 22.2823 46.1796C26.2537 47.4514 30.4337 45.8221 32.2143 43.5304C26.0383 43.2325 20.6002 41.2502 15.6112 37.4827Z" fill="#2E52A1"/>
<path d="M19.8989 16.4156C22.2366 16.4504 24.5526 16.8708 26.7533 17.66C27.5668 17.9464 27.9381 18.6087 27.725 19.3077C27.5118 20.0066 26.7739 20.3687 25.9145 20.0823C23.2906 19.2068 20.6208 18.7187 17.8548 19.1518C17.0163 19.2987 16.1875 19.4962 15.3729 19.7431C14.4792 19.9952 13.7688 19.7431 13.5396 19.0189C13.3104 18.2948 13.6336 17.5477 14.5342 17.3254C16.2896 16.8877 18.0748 16.5692 19.8462 16.2002L19.8989 16.4156Z" fill="#2E52A1"/>
<path d="M26.5057 20.3549C26.2865 20.353 26.0691 20.3159 25.8617 20.2449C22.8367 19.2366 20.3021 18.9433 17.8822 19.3283C17.0501 19.4748 16.2274 19.6707 15.4186 19.9149C14.4195 20.1968 13.6403 19.876 13.3836 19.0785C13.3146 18.8861 13.2862 18.6814 13.3004 18.4774C13.3146 18.2735 13.3711 18.0747 13.4661 17.8937C13.5786 17.7073 13.7285 17.5463 13.9064 17.4208C14.0843 17.2954 14.2863 17.2082 14.4997 17.165C15.744 16.8556 17.0205 16.6012 18.2603 16.3537C18.7805 16.2506 19.2984 16.1475 19.8186 16.0397L19.9859 16.0054L20.0386 16.2529C22.3487 16.3023 24.6359 16.7224 26.8127 17.4972C27.7019 17.8112 28.135 18.5606 27.8921 19.3581C27.8406 19.5367 27.753 19.7028 27.6347 19.8463C27.5165 19.9898 27.3701 20.1075 27.2046 20.1922C26.9878 20.3009 26.7482 20.3567 26.5057 20.3549ZM19.9378 18.8195C21.7871 18.8195 23.7488 19.1793 25.9671 19.9195C26.1405 19.9863 26.3255 20.0179 26.5112 20.0124C26.6969 20.0069 26.8797 19.9644 27.0488 19.8874C27.1734 19.8221 27.2833 19.7318 27.3716 19.6222C27.46 19.5126 27.5248 19.3861 27.5621 19.2504C27.75 18.6316 27.4109 18.0679 26.6959 17.8158C24.5135 17.0331 22.217 16.6158 19.8988 16.5806H19.7613L19.7224 16.3972C19.2549 16.4966 18.7919 16.592 18.3336 16.6837C17.0938 16.9289 15.8128 17.1879 14.5822 17.4904C14.4148 17.5233 14.2559 17.5903 14.1156 17.6873C13.9752 17.7843 13.8563 17.9092 13.7663 18.0541C13.6941 18.1947 13.6517 18.3487 13.6418 18.5065C13.632 18.6642 13.6549 18.8223 13.709 18.9708C13.9061 19.5826 14.5111 19.8118 15.3247 19.5826C16.1467 19.3332 16.9832 19.1343 17.8294 18.9868C18.5269 18.8767 19.2317 18.8208 19.9378 18.8195Z" fill="#2E52A1"/>
<path d="M46.4639 29.7782C46.1179 30.1288 45.8291 30.5917 45.412 30.8094C44.8345 31.1097 44.3097 30.8094 43.9431 30.2915C43.4985 29.6682 43.1112 28.9967 42.6208 28.4101C40.847 26.2903 38.5898 24.8374 36.0552 23.7901C35.7877 23.6945 35.5253 23.5851 35.2691 23.4624C34.6298 23.1164 34.3525 22.3991 34.6687 21.7941C34.985 21.1891 35.5396 20.8774 36.2339 21.1226C40.2352 22.603 43.6222 24.8878 45.9116 28.5865C46.117 28.9735 46.3014 29.3713 46.4639 29.7782Z" fill="#2E52A1"/>
<path d="M44.9582 31.0982C44.5411 31.0982 44.1332 30.8553 43.8124 30.3924C43.6519 30.1632 43.4961 29.9341 43.354 29.7049C43.0957 29.2957 42.8141 28.9017 42.5107 28.5247C40.8882 26.5837 38.7615 25.0872 36.0093 23.9414C35.9268 23.907 35.8443 23.8772 35.7618 23.8451C35.5722 23.7807 35.3869 23.7042 35.2072 23.616C34.4739 23.2195 34.1828 22.4037 34.5357 21.7208C34.9253 20.9668 35.5739 20.6941 36.3141 20.9668C40.7645 22.6122 43.959 25.078 46.0788 28.5018C46.2121 28.731 46.3278 28.97 46.4248 29.2168C46.4867 29.3634 46.5555 29.5262 46.6403 29.7118L46.6884 29.8195L46.6059 29.9043C46.5051 30.0074 46.4088 30.1197 46.3057 30.2389C46.0912 30.5304 45.8219 30.7771 45.5128 30.9653C45.3421 31.0556 45.1513 31.1014 44.9582 31.0982ZM35.7503 21.2029C35.5467 21.2162 35.3509 21.2861 35.1849 21.4047C35.0188 21.5233 34.8893 21.686 34.8107 21.8743C34.5472 22.3876 34.7741 23.0041 35.3424 23.3112C35.5076 23.3985 35.6783 23.475 35.8534 23.5403C35.9405 23.5724 36.0253 23.6045 36.1101 23.6412C38.9151 24.787 41.083 26.3247 42.7444 28.3093C43.0556 28.6961 43.3448 29.1001 43.6107 29.5193C43.7619 29.7484 43.9155 29.9776 44.069 30.2068C44.2867 30.5093 44.7359 30.9745 45.3203 30.6651C45.5881 30.4949 45.8213 30.2756 46.0078 30.0189C46.0834 29.9295 46.1636 29.8378 46.2369 29.7507C46.1705 29.6064 46.1155 29.4734 46.0651 29.3543C45.9749 29.1228 45.8676 28.8984 45.7442 28.6828C43.6657 25.3278 40.5284 22.9101 36.1514 21.2899C36.0235 21.2385 35.8879 21.2091 35.7503 21.2029Z" fill="#2E52A1"/>
<path d="M16.8923 21.3748C20.8477 21.3885 23.9048 23.6091 24.7161 26.5608C24.8971 27.2208 24.7871 27.7501 24.2325 28.1397C23.5244 28.637 22.6582 28.3139 22.3007 27.4522C20.9257 24.127 18.139 23.1187 14.9055 24.7756C14.1951 25.1377 13.4824 24.9681 13.118 24.3516C12.9434 24.0672 12.8878 23.7254 12.9633 23.4003C13.0388 23.0753 13.2393 22.793 13.5213 22.6145C14.7244 21.7712 16.0765 21.3793 16.8923 21.3748Z" fill="#2E52A1"/>
<path d="M23.5265 28.5453C23.4026 28.5454 23.2792 28.5284 23.1599 28.4948C22.9272 28.417 22.7148 28.2881 22.5384 28.1176C22.3619 27.9471 22.2258 27.7393 22.1401 27.5094C21.4916 25.9351 20.497 24.8626 19.2641 24.4088C18.0311 23.9551 16.537 24.1246 14.9832 24.9221C14.1903 25.3255 13.3791 25.1284 12.9689 24.4317C12.7761 24.1103 12.7162 23.7264 12.8017 23.3614C12.8873 22.9965 13.1117 22.6792 13.4272 22.4769C14.651 21.6015 16.0466 21.2074 16.8899 21.2051C20.7972 21.2051 24.0078 23.3524 24.8786 26.5148C25.094 27.2917 24.913 27.8692 24.3286 28.2817C24.0946 28.4497 23.8146 28.5417 23.5265 28.5453ZM17.8226 23.8153C18.3547 23.8124 18.8831 23.9039 19.3832 24.0857C20.7078 24.5738 21.7711 25.7128 22.4586 27.3788C22.5241 27.5612 22.6298 27.7266 22.7678 27.8627C22.9059 27.9987 23.0728 28.102 23.2561 28.1648C23.4053 28.2062 23.562 28.2129 23.7141 28.1843C23.8663 28.1557 24.0099 28.0926 24.1338 27.9998C24.5922 27.6744 24.7274 27.2436 24.5509 26.6065C23.7213 23.593 20.6551 21.5649 16.8922 21.5465C16.1039 21.5465 14.7907 21.9247 13.6289 22.7542C13.3826 22.906 13.2062 23.1488 13.138 23.4298C13.0698 23.7109 13.1152 24.0075 13.2645 24.2553C13.5853 24.7961 14.1972 24.9428 14.8251 24.6151C15.7472 24.1157 16.7743 23.8417 17.8226 23.8153Z" fill="#2E52A1"/>
<path d="M35.6906 28.1671C39.3389 28.2267 42.1347 30.0875 43.1706 32.7871C43.2653 33.0262 43.3419 33.2721 43.3997 33.5227C43.5556 34.2652 43.2118 34.8977 42.561 35.0787C41.8735 35.2735 41.1562 34.9962 40.9889 34.2744C40.3014 31.2517 36.1031 29.7162 33.5685 31.5244C33.4297 31.6276 33.2706 31.7002 33.1017 31.7375C32.9328 31.7747 32.7579 31.7757 32.5885 31.7404C32.4192 31.7051 32.2592 31.6343 32.1193 31.5327C31.9793 31.4311 31.8624 31.3009 31.7764 31.1508C31.396 30.5367 31.5473 29.8492 32.2348 29.3679C33.431 28.5108 34.7877 28.1465 35.6906 28.1671Z" fill="#2E52A1"/>
<path d="M42.1257 35.3103C41.8694 35.3133 41.617 35.2476 41.3946 35.1201C41.2467 35.0332 41.1185 34.9164 41.0182 34.7771C40.918 34.6378 40.8479 34.4791 40.8126 34.3112C40.5032 32.9683 39.4376 31.827 37.9411 31.2633C36.4172 30.6881 34.8176 30.8347 33.6603 31.6597C33.5058 31.7747 33.329 31.8563 33.1412 31.8994C32.9534 31.9424 32.7587 31.9458 32.5695 31.9095C32.3748 31.8668 32.1907 31.7851 32.0284 31.6693C31.8662 31.5535 31.729 31.406 31.6253 31.2358C31.1899 30.5368 31.3961 29.7485 32.1272 29.2237C33.168 28.4671 34.4115 28.0393 35.6976 27.9954C39.3092 28.0549 42.2357 29.8676 43.3311 32.7253C43.4277 32.9724 43.5043 33.2268 43.5603 33.4862C43.7321 34.3089 43.3311 35.033 42.6001 35.2439C42.4456 35.2871 42.2861 35.3095 42.1257 35.3103ZM36.094 30.5735C36.7671 30.5765 37.4341 30.7015 38.0626 30.9424C39.6667 31.5474 40.8126 32.7758 41.1471 34.2355C41.1726 34.3577 41.2232 34.4731 41.2958 34.5745C41.3684 34.6759 41.4614 34.7611 41.5688 34.8245C41.711 34.9018 41.8673 34.9495 42.0283 34.9649C42.1894 34.9802 42.3519 34.9629 42.5061 34.9139C43.0721 34.7512 43.3586 34.2057 43.2234 33.5572C43.1711 33.3159 43.0998 33.0792 43.0103 32.8491C41.9653 30.1243 39.1603 28.3964 35.677 28.3391C34.4647 28.3838 33.2934 28.7891 32.3128 29.5033C31.7147 29.9272 31.5611 30.507 31.9026 31.0547C31.9812 31.1858 32.0857 31.2994 32.2099 31.3884C32.3341 31.4775 32.4751 31.5402 32.6245 31.5726C32.7678 31.6004 32.9153 31.5975 33.0575 31.5644C33.1997 31.5312 33.3332 31.4684 33.4495 31.3801C34.2249 30.8413 35.1498 30.5592 36.094 30.5735Z" fill="#2E52A1"/>
</svg>
